<?xml version="1.0" encoding="UTF-8"?>
<svg version="1.1" viewBox="0 0 1992 2000" width="1280" height="1280" xmlns="http://www.w3.org/2000/svg">
<path transform="translate(548,56)" d="m0 0h412l6 5 2 5v412l-7 6-160 1h-96l-157-1-7-6-2-10v-368l1-35 4-6z" fill="#F4ECE4"/>
<path transform="translate(1515,540)" d="m0 0h404l11 1 4 3 2 11v406l-8 7h-412l-3-1-5-7-1-72v-336l2-5z" fill="#F4ECE4"/>
<path transform="translate(1516,56)" d="m0 0h403l11 1 5 6 1 21v392l-6 7-11 1h-403l-4-2v-2h-2l-2-4-1-18v-389l3-7 4-5z" fill="#F4ECE4"/>
<path transform="translate(572,1508)" d="m0 0h377l13 1 6 7v414l-7 6h-412l-4-1-4-5-1-3-1-34v-374l2-5 3-1 2-4z" fill="#F4ECE4"/>
<path transform="translate(1515,1508)" d="m0 0h396l19 1 6 7v408l-2 7-4 4-318 1h-96l-4-2v-2h-2l-2-5-1-43v-363l2-6z" fill="#F4ECE4"/>
<path transform="translate(1031,540)" d="m0 0h414l7 8v412l-6 7-7 1h-408l-3-2v-2h-2l-2-4-1-407 2-7z" fill="#EFB17A"/>
<path transform="translate(63,540)" d="m0 0h414l6 7 1 6v92l-1 316-6 7h-414l-5-5-2-3-1-18v-388l1-7z" fill="#EECC67"/>
<path transform="translate(547,1025)" d="m0 0h415l6 7v413l-6 7h-416l-6-8-1-23v-386l3-5z" fill="#F4ECE4"/>
<path transform="translate(1032,56)" d="m0 0h412l7 7 1 5v408l-6 7-19 1h-391l-7-2-5-6v-412l6-7z" fill="#F29664"/>
<path transform="translate(1517,1024)" d="m0 0h405l7 1 6 6 1 7v402l-2 6-4 5-2 1h-412l-5-5-3-5v-410l7-7z" fill="#EFB07A"/>
<path transform="translate(1033,1024)" d="m0 0h411l5 5 3 4v408l-2 5-4 5-12 1h-399l-6-2-5-7v-411l7-7z" fill="#F37D60"/>
<path transform="translate(549,540)" d="m0 0h411l8 8v404l-1 9-5 6-14 1h-396l-6-2-5-6-1-2v-409l7-8z" fill="#F45F3B"/>
<path transform="translate(1050,1508)" d="m0 0h384l11 1 7 8v406l-2 7-4 5-33 1h-378l-6-2-4-5-1-3v-410l7-7z" fill="#F45F3B"/>
<path transform="translate(85,1508)" d="m0 0h386l7 2 5 6 1 19v385l-1 10-5 6h-413l-5-2-4-6-1-55v-357l7-7z" fill="#F4ECE4"/>
<path transform="translate(62,1024)" d="m0 0h415l6 7 1 6v334l-1 74-6 7h-412l-5-3-4-6-1-410z" fill="#F4ECE4"/>
<path transform="translate(107,56)" d="m0 0h370l6 7 1 14v399l-1 2h-2l-2 4-2 2-159 1h-184l-67-1-6-2-5-6v-380l3-11 7-9 5-6 14-6 7-4 8-3z" fill="#F4ECE4"/>
<path transform="translate(1234,687)" d="m0 0 20 1 14 4 9 5 7 6 6 12 1 3v16l-5 9-7 7-10 6-3 1 14 9 5 4 8 11 2 6v15l-4 10-5 8-9 8-11 5-12 3-10 1h-20l-12-3-10-4-11-8-6-8-4-9v-18l4-11 6-8 13-9h2l-4-4-8-6-7-9-3-9v-9l2-9 6-10 7-6 14-7 8-2z" fill="#F5EDE5"/>
<path transform="translate(1706,1172)" d="m0 0h30l16 4 10 6 6 5 6 12 1 3v15l-5 9-6 7-9 6-4 3 11 6 10 9 6 10 1 4v12l-4 13-6 9-8 7-12 5-12 3-7 1h-22l-13-3-16-8-9-10-5-10v-20l4-10 8-10 13-8-12-9-6-7-4-11v-10l3-10 6-9 8-7 12-5z" fill="#F5EDE5"/>
<path transform="translate(1301,204)" d="m0 0h29l15 4 11 6 2 4-2 3h-2l-2 4-8 11-2 3-6-1-16-5h-11l-10 4-5 5-3 5-4 12 14-6 4-1h24l10 3 10 7 7 8 4 8 3 14v22l-4 11-6 10-12 10-12 5-8 2-18 1-12-2-12-5-9-7-7-7-6-12-4-13-2-12v-19l3-22 6-17 6-11 11-12 8-5z" fill="#F5EDE5"/>
<path transform="translate(1166,1656)" d="m0 0h26l15 4 12 6 2 4-9 11-7 10-5-1-15-5h-12l-11 4-7 8-5 14 6-2 8-4 4-1h24l11 4 9 6 8 9 4 9 2 9v25l-4 12-6 9-7 7-11 6-9 3-7 1h-20l-11-2-12-6-9-8-7-11-5-12-4-19v-15l4-26 4-13 6-12 9-11 10-7 13-5z" fill="#F5EDE5"/>
<path transform="translate(680,688)" d="m0 0h29l12 3 14 7 2 2-1 4-9 10-6 9-5-1-10-4-4-1h-14l-12 5-6 9-4 12 9-4 9-3h24l11 4 9 6 8 9 4 9 2 9 1 18-2 10-5 12-4 6-7 7-9 5-11 4-6 1h-21l-10-2-14-7-9-8-7-11-5-15-3-16v-10l3-25 4-16 7-14 9-10 8-7 14-6z" fill="#F5EDE5"/>
<path transform="translate(828,688)" d="m0 0h33l1 1 1 94 15 1 1 1v23l-1 3-4 1h-12v23l-14 1h-16l-2-2v-23l-36 1h-36l-3-2 1-28 4-6 10-13 14-18 13-17 14-18 9-12z" fill="#F5EDE5"/>
<path transform="translate(1313,1656)" d="m0 0h30l2 1 1 47v47l13 1 4 2v16l-1 9-15 1-1 23-3 1h-28l-1-1v-24l-43 1h-20l-11-1-1-27 7-11 13-16 9-12 10-13 16-21 10-13 7-9z" fill="#F5EDE5"/>
<path transform="translate(764,1172)" d="m0 0h32v96h18v27l-1 1h-17v24h-30v-24h-74v-31l11-14 8-10 20-26 14-18 13-17z" fill="#766D66"/>
<path transform="translate(765,204)" d="m0 0h31v96h18v27l-1 1h-17v23l-1 1h-29v-24h-74v-29l4-7 12-15 9-12 11-14 10-13 14-18 10-13z" fill="#766D66"/>
<path transform="translate(280,1656)" d="m0 0h32l1 95 17 1v27l-1 1h-17v24h-30v-24h-74v-31l9-11 15-20 10-12 9-12 11-14 12-16z" fill="#766D66"/>
<path transform="translate(1285,1172)" d="m0 0h30l12 3 11 6 7 7 5 10 3 13v8l-3 13-5 10-8 10-18 18-11 9-13 10-3 3h63l2 1v26l-8 1h-99l-2-2 1-24 7-7 14-11 12-11 8-7 12-12 10-13 6-12 1-6-2-7-5-4-7-3h-10l-9 4-8 6-5 5-10-7-9-6-6-5 1-4 11-11 12-7z" fill="#F5EDE5"/>
<path transform="translate(1153,1172)" d="m0 0h32l14 4 10 6 8 9 4 9 1 4v7l-5 13-6 8-9 6-5 3 8 3 9 6 7 10 3 9v14l-3 12-6 9-7 6-12 6-10 3-7 1h-25l-15-4-11-6-10-9-2-3v-4l20-13 6-1 11 8 10 4h9l12-6 6-7 1-4-4-10-7-5-10-3-18-1-2-1v-27l18-1 10-3 6-4 2-3 1-6-4-6-8-4h-13l-10 4-9 6-5-1-20-12-2-1 1-4 5-5 12-9 11-5z" fill="#F5EDE5"/>
<path transform="translate(255,1172)" d="m0 0h26l12 3 11 6 8 8 4 7 3 10v16l-4 12-6 11-13 15-11 10-11 9-14 11-1 2h64v28h-106l-1-4v-21l7-7 14-11 15-13 15-14 9-10 8-13 3-8v-7l-4-7-8-4h-14l-9 4-10 8-3 1-11-7-11-8 1-5 9-10 14-8z" fill="#766D66"/>
<path transform="translate(255,204)" d="m0 0h26l13 4 11 6 7 7 5 10 2 7v15l-4 13-6 11-11 12-13 13-11 9-14 11-1 2h64l1 1v14l-1 13h-106v-26l10-9 11-9 14-12 16-15 10-12 7-12 2-7-1-9-5-5-7-3h-13l-10 4-10 9-5-2-14-9-5-4 1-5 7-8 10-7 8-4z" fill="#766D66"/>
<path transform="translate(1708,1656)" d="m0 0h25l16 5 9 6 7 8 4 8 2 7v15l-4 13-6 11-13 15-10 9-14 12-12 9v1l63 1v28h-106v-26l11-10 7-5h2l2-4 11-9 9-9 8-7 8-9 9-14 3-8-1-9-4-6-7-3h-14l-10 4-9 8h-5l-16-11-5-5 9-11 10-7 8-4z" fill="#766D66"/>
<path transform="translate(1708,688)" d="m0 0h25l14 4 10 6 7 7 6 12 1 4v16l-4 13-6 11-11 12-12 12-22 18-4 4 63 1v27l-2 1h-104v-26l10-9 10-8 15-13 15-14 8-9 9-14 3-7v-7l-3-7-6-4-3-1h-15l-10 5-9 8-4-1-15-10-5-4 1-5 7-8 10-7 12-5z" fill="#766D66"/>
<path transform="translate(739,1656)" d="m0 0h26l16 5 10 7 6 7 4 8 2 7v15l-4 13-6 11-12 13-12 12-11 9-10 8-4 4 63 1v28h-106v-26l10-9 10-8 15-13 17-16 11-14 6-12 1-9-3-7-6-4-4-1h-13l-10 4-10 9-5-2-9-6-11-7 1-4 8-9 10-7 8-4z" fill="#766D66"/>
<path transform="translate(1708,204)" d="m0 0h24l12 3 13 7 7 7 5 10 2 7v15l-4 13-6 11-13 15-10 9-14 12-12 9v1l63 1v28h-106v-26l10-9 10-8 15-13 16-15 10-12 8-14 1-4v-8l-4-6-9-4h-15l-9 5-6 5h-2l-1 3-5-2-12-8-7-5 1-5 7-8 10-7 12-5z" fill="#766D66"/>
<path transform="translate(371,696)" d="m0 0h25l14 4 7 4-1 5-8 10-3 5-6-1-12-5h-12l-6 4-6 9-2 6-1 7 13-4h22l10 4 10 9 5 10 2 7v18l-4 11-6 9-8 7-12 5-19 1-12-2-12-6-10-10-6-12-3-12v-27l3-17 5-13 6-10 6-7 8-5z" fill="#F5EDE5"/>
<path transform="translate(237,696)" d="m0 0h67l3 1v22l-1 1h-50l-1 17-1 3h31l10 4 11 8 5 8 3 8 1 11-3 15-6 10-8 8-12 6-8 2-17 1-16-2-13-7-9-8-1-2v-7l4-3 8-4 4-3 5 1 6 5 7 3 5 1h8l9-4 6-5 3-6-1-6-4-6-5-4-9-3h-9l-9 3-1 3-3 1h-19v-8l7-62z" fill="#F5EDE5"/>
<path transform="translate(150,696)" d="m0 0h26l11 4 9 6 5 8 3 10v16l-4 11-7 11-10 11-11 9-9 8-4 3h-2v3h50l1 3v20l-2 1h-87l-1-10 1-11 4-5 11-9 10-9 8-7 13-13 9-14 2-5v-8l-4-5-6-3h-9l-11 6-4 4h-6l-12-8-5-4 1-6 10-9 12-6z" fill="#F5EDE5"/>
<path transform="translate(1193,203)" d="m0 0h5l1 1v148h-32l-1-5v-95h-33l-2-2-1-7v-9l5-3 20-4 9-5 6-9 4-9z" fill="#F5EDE5"/>
<path transform="translate(681,764)" d="m0 0h11l10 4 6 7 3 9v7l-5 10-7 5-6 2h-8l-9-3-7-7-3-6-2-15 1-7 7-3z" fill="#F4633F"/>
<path transform="translate(1165,1732)" d="m0 0h12l10 5 5 6 2 5v13l-3 7-6 5-8 3h-9l-9-4-7-8-3-9-1-6v-9l3-3z" fill="#F4633F"/>
<path transform="translate(1303,280)" d="m0 0h11l10 5 4 5 3 9v9l-4 8-6 5-7 3h-9l-12-6-6-10-2-12v-8l8-5z" fill="#F29765"/>
<path transform="translate(1235,770)" d="m0 0h6l11 6 7 7 4 9-1 7-7 8-11 5h-13l-12-6-4-5-1-4v-8l4-8 8-7z" fill="#EFB17A"/>
<path transform="translate(1719,1254)" d="m0 0 7 1 8 4 9 8 3 7v8l-6 8-10 5-3 1h-11l-10-4-5-4-3-6v-10l4-7 10-8z" fill="#EFB17A"/>
<path transform="translate(765,1212)" d="m0 0h2v56h-44l2-5 12-15 12-16 9-11z" fill="#F4EADF"/>
<path transform="translate(765,244)" d="m0 0h2v56h-44l2-5 13-16 9-12 11-14z" fill="#F4EBDF"/>
<path transform="translate(281,1696)" d="m0 0h2v56h-43v-3l10-13 13-17 11-14z" fill="#F4EADF"/>
<path transform="translate(549,540)" d="m0 0h411v1l-354 1-58 1-4 4-1 13-1 380h-1l-1-5v-386l7-8z" fill="#B5715E"/>
<path transform="translate(370,760)" d="m0 0h11l8 5 4 5 3 7v7l-5 10-7 5-3 1h-7l-8-4-4-5-4-11v-12l7-6z" fill="#EECC67"/>
<path transform="translate(1313,1698)" d="m0 0h1v54h-42l2-4 12-15 13-17 12-15z" fill="#F46440"/>
<path transform="translate(829,730)" d="m0 0h1v54h-42l2-4 13-16 9-12 11-14z" fill="#F4623D"/>
<path transform="translate(1716,1196)" d="m0 0h9l11 4 7 8v6l-7 9-11 7-4 1-13-7-6-7-1-2v-8l4-6 7-4z" fill="#EFB17A"/>
<path transform="translate(1232,712)" d="m0 0h9l9 3 6 5 4 8-6 9-8 6-7 3-6-1-10-6-6-8v-8l5-6z" fill="#EFB17A"/>
<path transform="translate(1418,56)" d="m0 0h26l7 7 1 5v408l-3 3 1-4v-108l-1-38v-62l1-66 1-128h-2l-3-7-3-2v-3h-2l-1-3-22-1z" fill="#F0B27C"/>
<path transform="translate(1029,1448)" d="m0 0h9l11 2 384 1v1h-398l-6-2z" fill="#F0B27C"/>
<path transform="translate(1239,1755)" d="m0 0h1v24h74l1 24h31v-23l1-1h15l-2 2h-13v23l-2 1h-31l-1-1-1-20 1-2-71-1-4-2z" fill="#F29469"/>
<path transform="translate(898,541)" d="m0 0h64l6 7v171h-1l-1-169h-2l-1-4-3-2 1-2h-63z" fill="#F19D67"/>
<path transform="translate(1418,56)" d="m0 0h26l7 7 1 5v133h-1v-128h-2l-3-7-3-2v-3h-2l-1-3-22-1z" fill="#F0B37C"/>
<path transform="translate(755,784)" d="m0 0h1v26l5 1h69l1 23 2 3-4-2v-21h-48l-24-1-3-2z" fill="#F28C66"/>
<path transform="translate(1027,478)" d="m0 0 4 1 7 2 16 1h106v1l-46 1h-78l-7-2z" fill="#F0AB73"/>
<path transform="translate(82,57)" d="m0 0h8v2l-12 4-3 3v2l-4 1-5 1-7-8v-2h13l9-2z" fill="#F5EDE5"/>
<path transform="translate(1444,480)" d="m0 0 4 1-2 2-19 1h-81v-2h79l17-1z" fill="#EFB679"/>
<path transform="translate(1079,1448)" d="m0 0h33l11 1v2h-60l3-2h9z" fill="#F39664"/>
<path transform="translate(1418,56)" d="m0 0h26l7 7v10h-2l-3-7-3-2v-3h-2l-1-3-22-1z" fill="#EEB57E"/>
<path transform="translate(898,541)" d="m0 0h64l6 8-4 1-1-4-3-2 1-2h-63z" fill="#F07F60"/>
<path transform="translate(1027,478)" d="m0 0 4 1 7 2 29 2v1h-31l-7-2z" fill="#F1C191"/>
<path transform="translate(829,730)" d="m0 0h1v54h-1v-49l-4 2 2-4z" fill="#F37D60"/>
<path transform="translate(1922,1025)" d="m0 0h7l6 6v22h-1l-1-18-4-6-7-3z" fill="#EECC67"/>
<path transform="translate(1029,1448)" d="m0 0h9l11 2v1l-5 1h-9l-6-2z" fill="#F29D6B"/>
<path transform="translate(1439,1024)" d="m0 0 7 1 6 8-1 6h-2l-1-4-1-3-2-1-1-3 1-2h-5z" fill="#F29C69"/>
<path transform="translate(1444,480)" d="m0 0 4 1-2 2-19 1h-16v-1l31-2z" fill="#F2C8A5"/>
<path transform="translate(1316,1207)" d="m0 0 3 3 1 7-3 9h-1z" fill="#F1A46E"/>
<path transform="translate(1189,1269)" d="m0 0 2 2 1 6-3 5-3-1z" fill="#F1A06B"/>
<path transform="translate(82,51)" d="m0 0 5 1v3l-7 1-1 2v-5z" fill="#F4ECE1"/>
<path transform="translate(1934,1428)" d="m0 0h1v17l-2 1-1-4z" fill="#EFC878"/>
<path transform="translate(829,730)" d="m0 0h1v20h-1v-15l-4 2 2-4z" fill="#F29765"/>
<path transform="translate(1517,1024)" d="m0 0h9v1l-9 2-6 5-2-1z" fill="#F2DBAF"/>
<path transform="translate(93,57)" d="m0 0" fill="#F5EDE5"/>
</svg>
