<?xml version="1.0" encoding="UTF-8"?>
<svg version="1.1" viewBox="0 0 1712 1776" width="1280" height="1280" xmlns="http://www.w3.org/2000/svg">
<path transform="translate(1326,88)" d="m0 0h21l159 4 100 2 23 1 16 2 8 4 7 8 3 7v40l-6 254-1 22-3 9-6 8-8 5-4 1h-54l-239-6-22-1-10-3-8-7-5-10-1-4v-17l3-119 2-93 2-66 1-20 5-10 9-8z" fill="#181C25"/>
<path transform="translate(496,501)" d="m0 0h15l288 13 13 1 10 4 7 6 5 9v31l-7 157-5 114-1 15-3 8-4 6-5 5-7 4-5 1-27-1-284-13-10-3-8-6-6-10-1-4v-15l6-132 5-112 3-56 6-12 8-7z" fill="#181C25"/>
<path transform="translate(500,1329)" d="m0 0h18l277 21 26 3 8 5 7 8 3 8v15l-7 89-11 144-4 53-2 16-5 10-7 6-10 4h-12l-287-22-17-2-7-3-8-7-4-8-1-3v-17l12-159 9-116 2-23 4-10 4-5 10-6z" fill="#181C25"/>
<path transform="translate(908,87)" d="m0 0h38l221 8 50 2 15 2 9 6 6 8 2 5v25l-5 138-5 142-1 13-3 7-6 8-9 5-3 1h-26l-245-9-33-1-13-1-8-3-8-7-5-10-1-5 2-62 8-216 1-31 2-9 6-9 9-6z" fill="#181C25"/>
<path transform="translate(93,75)" d="m0 0 17 1 147 17 143 17 12 3 8 5 6 7 3 9-1 14-7 61-20 170-7 60-3 13-6 9-5 4-10 4-14-1-248-29-49-6-10-3-9-8-5-11 1-20 10-84 13-110 10-85 4-19 4-8 8-7z" fill="#181C25"/>
<path transform="translate(915,915)" d="m0 0h21l81 5 201 13 16 2 9 5 7 8 3 6v19l-4 64-7 110-8 121-3 10-7 9-8 5-2 1h-20l-294-19-9-2-9-6-6-10-2-6 1-20 10-158 8-124 1-12 6-12 6-5z" fill="#181C25"/>
<path transform="translate(95,1321)" d="m0 0 17 1 106 14 181 24 12 2 9 5 8 9 3 9-1 16-5 36-34 255-2 9-6 9-8 6-5 2h-16l-83-11-189-25-28-4-10-5-8-9-3-9v-9l17-127 17-129 6-45 3-9 9-10z" fill="#181C25"/>
<path transform="translate(333,506)" d="m0 0h56l10 5 7 8 3 6 1 6 3 206 1 56v51l-5 10-5 6-10 5-12 1-275 4h-32l-10-5-7-8-4-10-1-33-2-155-2-125 4-10 5-7 10-6 5-1 138-2 40-1z" fill="#181C25"/>
<path transform="translate(504,911)" d="m0 0 33 2 275 24 11 2 9 6 4 5 4 9v17l-6 71-7 80-9 105-4 41-4 10-6 8-8 4-3 1h-18l-289-25-12-2-10-6-6-9-2-6v-21l11-126 6-69 8-93 2-10 6-9 7-6z" fill="#181C25"/>
<path transform="translate(1325,1336)" d="m0 0h36l253 7 22 1 12 2 8 6 4 5 3 7 1 6v15l-7 255-1 34-2 13-7 10-6 4-6 2h-57l-251-7-11-1-9-4-7-8-4-10v-35l3-106 3-113 2-60 3-8 4-6 7-6z" fill="#181C25"/>
<path transform="translate(1323,923)" d="m0 0h100l123 1 92 1 9 3 8 7 5 10 1 6v37l-1 175-1 99-4 10-4 5-10 6-3 1h-164l-152-1-9-3-8-7-5-10-1-4v-80l1-219 1-17 5-9 5-5z" fill="#181C25"/>
<path transform="translate(356,905)" d="m0 0h12l10 4 8 9 4 11 8 57 14 104 15 109 3 30-1 14-5 10-7 6-11 3-95 13-206 28h-9l-9-4-7-6-5-9-6-38-28-206-8-58v-15l4-9 5-6 12-6 102-14 191-26z" fill="#181C25"/>
<path transform="translate(1607,494)" d="m0 0h17l10 5 6 7 3 6 3 23 15 153 13 129v14l-5 10-5 6-10 4-44 5-150 15-112 11h-11l-10-5-6-5-4-8-3-20-16-161-12-121v-19l5-9 8-7 8-3 36-4 162-16z" fill="#181C25"/>
<path transform="translate(765,73)" d="m0 0h20l9 4 7 8 4 11 7 48 21 149 15 106-1 10-5 10-7 6-8 3-24 4-235 33-41 6h-14l-9-3-8-7-4-8-6-36-22-157-11-78-5-35v-10l4-10 6-7 9-4 22-4 48-7 193-27z" fill="#181C25"/>
<path transform="translate(1193,486)" d="m0 0 9 2 6 4 5 5 5 8 3 15 16 106 19 126 9 61v8l-3 8-9 10-11 4-65 10-225 34-20 2-11-4-8-8-3-5-3-15-15-98-15-101-14-93-1-8 4-11 7-8 10-5 30-5 99-15 88-13 85-13z" fill="#181C25"/>
<path transform="translate(1161,1338)" d="m0 0h60l10 5 7 8 3 6 1 9 3 211 1 54v45l-5 10-7 7-10 4-23 1-259 4h-35l-8-4-7-6-5-9-1-5-2-108-1-84-2-119 2-8 4-6 8-7 6-3 9-1 138-2 37-1z" fill="#181C25"/>
<path transform="translate(1326,88)" d="m0 0h21l159 4 100 2 23 1 16 2 8 4 7 8 3 7v40l-6 254-1 22-3 9-6 8-8 5-4 1h-54l-239-6-22-1-10-3-8-7-5-10-1-4v-17l3-119 2-93 2-66 1-20 5-10 9-8zm-1 21-1 4-1 21-3 127-3 135v30l4 2 246 6 33 1h33l2-3 1-5 2-68 3-129 2-79v-33l-3-2-12-1-57-1-205-5z" fill="#F8F8FC"/>
<path transform="translate(333,506)" d="m0 0h56l10 5 7 8 3 6 1 6 3 206 1 56v51l-5 10-5 6-10 5-12 1-275 4h-32l-10-5-7-8-4-10-1-33-2-155-2-125 4-10 5-7 10-6 5-1 138-2 40-1zm24 20-137 2-51 1-89 1-8 1-2 4 1 104 2 122 1 80 1 7 1 1h94l205-3 15-1 3-2v-81l-1-58-2-158-1-17-4-3z" fill="#F9F9FD"/>
<path transform="translate(93,75)" d="m0 0 17 1 147 17 143 17 12 3 8 5 6 7 3 9-1 14-7 61-20 170-7 60-3 13-6 9-5 4-10 4-14-1-248-29-49-6-10-3-9-8-5-11 1-20 10-84 13-110 10-85 4-19 4-8 8-7zm0 20-3 11-6 52-15 129-3 22-4 37-7 57 1 7 3 2 36 5 146 17 101 12 4 1 13 1h10l4-8 8-66 13-111 14-119v-10l-6-3-48-6-255-30z" fill="#F8F9FC"/>
<path transform="translate(496,501)" d="m0 0h15l288 13 13 1 10 4 7 6 5 9v31l-7 157-5 114-1 15-3 8-4 6-5 5-7 4-5 1-27-1-284-13-10-3-8-6-6-10-1-4v-15l6-132 5-112 3-56 6-12 8-7zm1 21-2 4-5 108-5 115-3 65v23l2 3 4 1 62 3 142 6 88 4h17l3-3 1-7 4-86 8-180 1-21v-19l-5-3-286-13z" fill="#F8F9FD"/>
<path transform="translate(908,87)" d="m0 0h38l221 8 50 2 15 2 9 6 6 8 2 5v25l-5 138-5 142-1 13-3 7-6 8-9 5-3 1h-26l-245-9-33-1-13-1-8-3-8-7-5-10-1-5 2-62 8-216 1-31 2-9 6-9 9-6zm4 20-2 4-3 67-6 174-2 49v21l3 3 4 1 73 3 112 4 108 4h13l5-3 2-16 2-62 5-134 3-90v-13l-10-2-61-2-219-8z" fill="#F8F9FC"/>
<path transform="translate(504,911)" d="m0 0 33 2 275 24 11 2 9 6 4 5 4 9v17l-6 71-7 80-9 105-4 41-4 10-6 8-8 4-3 1h-18l-289-25-12-2-10-6-6-9-2-6v-21l11-126 6-69 8-93 2-10 6-9 7-6zm-1 21-2 14-7 80-13 150-5 56v13l4 4 13 2 207 18 78 7h11l4-4 2-12 13-149 12-140v-8l-2-4-10-2-290-25z" fill="#F8F8FC"/>
<path transform="translate(500,1329)" d="m0 0h18l277 21 26 3 8 5 7 8 3 8v15l-7 89-11 144-4 53-2 16-5 10-7 6-10 4h-12l-287-22-17-2-7-3-8-7-4-8-1-3v-17l12-159 9-116 2-23 4-10 4-5 10-6zm2 20-2 5-11 146-12 156v9l7 3 54 4 21 2 58 4 154 12 11 1h11l2-4 2-17 15-196 6-79 1-10v-10l-1-2-3-1-236-18-52-4z" fill="#F9F9FD"/>
<path transform="translate(915,915)" d="m0 0h21l81 5 201 13 16 2 9 5 7 8 3 6v19l-4 64-7 110-8 121-3 10-7 9-8 5-2 1h-20l-294-19-9-2-9-6-6-10-2-6 1-20 10-158 8-124 1-12 6-12 6-5zm2 20-2 1-1 5-11 170-6 95-2 29v14l1 3 10 2 291 19h13l3-5 1-5 8-120 7-110 4-66v-9l-3-3-3-1-294-19z" fill="#F8F9FD"/>
<path transform="translate(95,1321)" d="m0 0 17 1 106 14 181 24 12 2 9 5 8 9 3 9-1 16-5 36-34 255-2 9-6 9-8 6-5 2h-16l-83-11-189-25-28-4-10-5-8-9-3-9v-9l17-127 17-129 6-45 3-9 9-10zm1 20-3 9-6 41-4 34-7 52-9 68-6 46-7 49v16l3 2 34 5 30 4 33 4 20 3 18 2 121 16 21 3 20 3h13l3-5 2-9 7-56 30-226 1-16-1-3-6-2-294-39z" fill="#F9F9FD"/>
<path transform="translate(1161,1338)" d="m0 0h60l10 5 7 8 3 6 1 9 3 211 1 54v45l-5 10-7 7-10 4-23 1-259 4h-35l-8-4-7-6-5-9-1-5-2-108-1-84-2-119 2-8 4-6 8-7 6-3 9-1 138-2 37-1zm13 20-168 3-78 1-23 1-2 1-1 3v29l2 134 1 57 1 86 2 8 2 1 109-1 194-3 11-1 1-1v-85l-2-133-1-93-1-6-3-1z" fill="#F9F9FD"/>
<path transform="translate(1325,1336)" d="m0 0h36l253 7 22 1 12 2 8 6 4 5 3 7 1 6v15l-7 255-1 34-2 13-7 10-6 4-6 2h-57l-251-7-11-1-9-4-7-8-4-10v-35l3-106 3-113 2-60 3-8 4-6 7-6zm2 20-2 3-1 7-7 254-1 50 2 5 9 1 144 4 27 1 130 3 6-2 2-10 4-155 3-102v-49l-4-2-152-4-142-4z" fill="#F9FAFD"/>
<path transform="translate(765,73)" d="m0 0h20l9 4 7 8 4 11 7 48 21 149 15 106-1 10-5 10-7 6-8 3-24 4-235 33-41 6h-14l-9-3-8-7-4-8-6-36-22-157-11-78-5-35v-10l4-10 6-7 9-4 22-4 48-7 193-27zm10 19-133 19-162 23-10 3-1 1v12l9 64 7 49 13 92 12 85 2 8 1 3h11l25-3 26-4 76-11 73-10 91-13 8-2 4-2v-11l-8-56-3-22-5-38-4-26-8-57-7-49-6-45-2-7-2-3z" fill="#F9F9FD"/>
<path transform="translate(1607,494)" d="m0 0h17l10 5 6 7 3 6 3 23 15 153 13 129v14l-5 10-5 6-10 4-44 5-150 15-112 11h-11l-10-5-6-5-4-8-3-20-16-161-12-121v-19l5-9 8-7 8-3 36-4 162-16zm4 20-153 15-24 2-36 4-83 8-8 2-1 3 1 19 12 120 10 102 6 61 3 11 1 1 29-2 110-11 101-10 63-6 11-3 1-2v-11l-6-55-13-133-11-108-2-7z" fill="#F9F9FD"/>
<path transform="translate(1193,486)" d="m0 0 9 2 6 4 5 5 5 8 3 15 16 106 19 126 9 61v8l-3 8-9 10-11 4-65 10-225 34-20 2-11-4-8-8-3-5-3-15-15-98-15-101-14-93-1-8 4-11 7-8 10-5 30-5 99-15 88-13 85-13zm-1 21-36 5-92 14-21 3-139 21-17 3-4 1 1 15 9 60 4 26 18 119 3 23 5 30 3 21 3 16 2 4h13l71-11 35-5 72-11 113-17 9-3v-12l-17-114-12-79-5-35-3-18-4-26-4-27-2-3z" fill="#F9F9FD"/>
<path transform="translate(356,905)" d="m0 0h12l10 4 8 9 4 11 8 57 14 104 15 109 3 30-1 14-5 10-7 6-11 3-95 13-206 28h-9l-9-4-7-6-5-9-6-38-28-206-8-58v-15l4-9 5-6 12-6 102-14 191-26zm0 20-63 9-16 2-88 12-30 4-39 5-12 2-32 4-19 3-4 2v9l11 81 25 183 5 37 3 5 13-1 154-21 133-18 10-2 4-3-1-12-7-52-4-31-5-38-7-49-14-102-3-24-5-5z" fill="#F9FAFD"/>
<path transform="translate(1323,923)" d="m0 0h100l123 1 92 1 9 3 8 7 5 10 1 6v37l-1 175-1 99-4 10-4 5-10 6-3 1h-164l-152-1-9-3-8-7-5-10-1-4v-80l1-219 1-17 5-9 5-5zm13 20-13 1-2 4-2 272v34l1 7 5 2 138 1 58 1h113l3-1 1-4 1-16 1-174v-121l-2-4-46-1z" fill="#FAFBFD"/>
<path transform="translate(240,185)" d="m0 0h7l8 9 11 14 11 13 7 10 11 13 11 14 13 16 5 9-1 5-15 12-11 9-14 11-15 12-13 10-13 11-14 10-6 1-6-5-10-13-9-12-13-16-14-18-11-14-9-11-6-9v-5l8-7 19-14 7-6 14-11 5-4 14-11 4-2v-2l17-13z" fill="#8672D1"/>
<path transform="translate(240,193)" d="m0 0h4l3 5 2 13 5 22 4 14 4 12 2 9v9l-3 9-4 9-8 12-4 9-2 1-1 4-4 9h-2l-3 9-4 7-3 9-4 4-2-2-2-6-2-12-2-8-3-8-1-10-2-1-1-12h-6l-10 10h-2l-2 4-3-1v-2l-4-2-11-14-8-10-7-9-5-7v-3h-2v-4l4-1 1 7 10 2 4 4 12 3 11 8 8 3 3-1v-15l4-13 2-6h-10l-8 3-18 4-18 1 2-1v-4l9-7 6-5h2v-2l11-8 6-5 6-3h5l3 4 3 5 10 3 2-4 5-8 8-17 4-8 3-5z" fill="#BEA6E2"/>
<path transform="translate(643,1036)" d="m0 0h19l11 4 10 9 5 7 3 10v14l-4 10-9 10-11 10-6 8-3 10-2 2h-11l-6-2-1-1v-8l3-10 6-9 8-8 9-7 1-2h2l2-6v-10l-4-6-4-3-3-1h-10l-6 3-5 5-3 5-7-1-9-6-1-1v-6l6-9 8-7z" fill="#5859EC"/>
<path transform="translate(1478,619)" d="m0 0h8l12 4 10 7 6 9 3 9v14l-7 14-8 11-6 10-2 15-2 1-15 1-3-3-1-3v-11l4-9 7-11 8-11 3-7v-7l-3-6-5-4-2-1h-12l-7 4-4 6-3 7-9-1-8-4-1-1v-6l7-14 7-6 10-5z" fill="#5859EC"/>
<path transform="translate(232,1452)" d="m0 0h14l10 3 8 6 7 7 5 11v17l-3 9-9 10-7 7-8 6-6 10-2 7-2 2-16-2-2-2v-8l4-11 6-8 14-11 4-2 2-4 3-5v-11l-4-6-8-4-10 1-8 5-5 7-6-2-10-7-1-5 8-10 8-6 8-3z" fill="#5859EC"/>
<path transform="translate(645,203)" d="m0 0 11 1 10 4 8 6 6 8 3 8 1 5v8l-4 11-7 11-8 13-1 3v10l-2 5-2 1h-16l-2-5-1-11 4-10 8-12 7-11 2-4v-8l-3-6-5-4-3-1h-11l-5 3-5 6-4 9-7-1-8-3-4-3v-6l6-11 6-7 14-7z" fill="#5859EC"/>
<path transform="translate(223,1036)" d="m0 0h17l12 5 10 9 4 8 2 9-1 11-4 10-12 18-3 8-1 12-2 3-16 1-3-5-1-3v-11l8-15 10-14 3-6v-9l-3-5-5-4-2-1h-12l-6 4-5 6-2 8-9-1-10-5-1-5 4-10 9-10 8-5z" fill="#5859EC"/>
<path transform="translate(1060,619)" d="m0 0h7l11 3 10 6 8 11 3 10v11l-3 10-7 11-6 9-3 8v10l-3 5-14 1-3-1-2-6v-12l5-12 7-10 7-12 1-8-3-7-5-4-6-2-8 1-5 3-6 8-3 6-1 1-8-1-9-4-1-1v-7l5-10 7-8 14-7z" fill="#5859EC"/>
<path transform="translate(1062,1036)" d="m0 0h15l9 3 9 6 6 7 4 8 1 3v17l-6 12-9 10-3 3h-2l-2 4-6 7-2 5-1 7-2 2-17-1-2-6 2-10 5-10 9-10 8-7 6-9 1-7-3-7-6-5-3-1h-10l-6 3-6 7-4 4-12-6-4-5 3-7 9-10 4-3 9-3z" fill="#5859EC"/>
<path transform="translate(646,1452)" d="m0 0h16l9 3 9 7 6 7 5 12v12l-4 11-8 10-16 16-3 7-2 8-1 1-16-1-2-1-1-8 3-10 8-12h2v-2h2l2-4 8-7 4-5 2-5v-7l-3-6-5-4-3-1h-11l-7 4-7 10-5-1-10-6-2-3 1-5 6-9 7-6 10-4z" fill="#5859EC"/>
<path transform="translate(1060,204)" d="m0 0h17l11 4 10 9 7 14v15l-5 12-18 20-5 9-2 10-1 1-18-1-1-1v-10l3-9 7-11 6-6h2v-2h2l2-4 5-6 2-7-1-7-4-6-6-3h-11l-8 4-6 10-7-1-9-5-1-2v-7l8-11 8-5z" fill="#5859EC"/>
<path transform="translate(644,620)" d="m0 0h17l11 4 10 9 5 8 2 5v18l-5 10-11 13-8 8-4 7-1 10-2 2-18-1-1-1v-11l3-8 6-9 7-8h2v-2l5-4 5-7 1-3v-8l-3-6-5-4-2-1h-12l-6 3-5 6-3 5-6-1-9-5-2-2v-6l6-9 8-7 10-4z" fill="#5859EC"/>
<path transform="translate(1476,1452)" d="m0 0h17l12 5 8 7 5 9 3 8v13l-7 14-12 13-8 11-3 13-4 1-15-1-1-1v-9l2-8 5-9 11-12 8-9 2-4v-10l-4-7-5-3-7-1-8 2-6 4-7 10-6-2-10-6v-6l6-10 7-6 12-5z" fill="#5859EC"/>
<path transform="translate(1475,204)" d="m0 0h18l10 4 10 9 6 10 2 8v9l-3 9-6 9-11 12-7 10-1 2-1 9-3 3-16-1-2-1v-9l2-9 9-13 13-13 4-8v-9l-4-7-6-3h-12l-7 4-4 5-4 6-8-3-8-5v-6l6-10 8-7 10-4z" fill="#5859EC"/>
<path transform="translate(1057,1452)" d="m0 0h18l12 5 11 10 5 9 1 4v10l-2 8-4 8-8 10-8 9-4 8-2 11-4 2-14-1-2-1v-13l4-10 9-12 5-5 5-6 3-5v-10l-3-6-6-4-9-1-7 2-6 5-5 9-10-3-8-4 1-6 6-11 8-7 9-4z" fill="#5859EC"/>
<path transform="translate(225,620)" d="m0 0h18l12 5 11 10 5 9 1 4v11l-3 10-9 13-10 11-4 8-2 11-4 2-15-1-1-1v-14l6-12 9-10 9-11 2-4v-10l-3-6-6-4-9-1-7 2-6 5-5 9-9-3-8-4-1-4 7-13 8-7 9-4z" fill="#5859EC"/>
<path transform="translate(1474,1036)" d="m0 0h18l10 4 9 7 6 9 3 7v16l-6 12-9 10-1 2h-2l-2 4-6 9-1 2-1 9-2 2h-18l-1-1 1-14 6-12 11-12 8-10 2-6-1-9-5-6-4-2h-13l-6 4h-2v2h-2l-2 6-3 3-16-8-1-2 6-12 8-8 11-5z" fill="#5859EC"/>
<path transform="translate(240,185)" d="m0 0h7l8 9 11 14 11 13 7 10 11 13 11 14 13 16 5 9-1 5-15 12-11 9-14 11-15 12-13 10-13 11-14 10-6 1-6-5-10-13 1-2 10 11 3 5 4 1 4-1 2-4 7-5 5-5 22-18 13-9 14-10 11-9 13-10 4-5-1-5-9-12-13-16-9-12-7-6-9-11-10-13-7-9-6-9-3-3-7 1-12 10-10 8-17 13-10 7-4 5-12 9h-2v2l-15 12h-2v4l16-1 11-2 7-2 8-3h8l2 1-2 9-3 10v15l-5 2-12-6-6-5-12-3-1-3-9-2-5-1-1-5 1-3-4 1v4h2l4 8 8 9 8 11 11 13-1 3-5-5-11-14-10-12-9-13v-5l8-7 19-14 7-6 14-11 5-4 14-11 4-2v-2l17-13z" fill="#8672D1"/>
<path transform="translate(240,185)" d="m0 0h7l8 9 11 14 11 13 7 10 11 13 11 14 13 16 5 9-1 5-15 12-11 9-14 11-15 12-13 10-13 11-14 10-6 1-6-5-10-13 1-2 10 11 3 5 4 1 4-1 2-4 7-5 5-5 22-18 13-9 14-10 11-9 13-10 4-5-1-5-9-12-13-16-9-12-7-6-9-11-10-13-7-9-6-9-3-3-7 1-12 10-10 8-17 13-11 8-2-1 11-9 14-11 4-2v-2l17-13z" fill="#5859EC"/>
<path transform="translate(1059,311)" d="m0 0h10l8 6 2 6-1 9-4 6-4 2h-12l-6-4-3-5v-9l4-8z" fill="#5859EC"/>
<path transform="translate(642,1559)" d="m0 0h9l6 4 3 4v12l-4 7-7 3h-7l-6-3-4-5-1-7 2-8 4-5z" fill="#5859EC"/>
<path transform="translate(237,1142)" d="m0 0h9l5 3 4 5 1 4v7l-3 6-5 4-4 1h-8l-6-4-3-7v-9l4-7z" fill="#5859EC"/>
<path transform="translate(642,727)" d="m0 0h10l7 4 3 6v9l-3 6-5 4-7 1-8-2-5-6-1-2v-9l4-8z" fill="#5859EC"/>
<path transform="translate(1477,1559)" d="m0 0h8l7 4 3 5v11l-3 5-3 3-3 1h-12l-6-5-2-4v-9l3-7 4-3z" fill="#5859EC"/>
<path transform="translate(1485,726)" d="m0 0 8 1 7 6 2 7-1 9-4 5-5 2h-10l-6-4-3-5v-12l4-6z" fill="#5859EC"/>
<path transform="translate(641,1143)" d="m0 0h10l6 4 3 6v10l-3 5-6 4h-12l-7-6-1-3v-9l4-8z" fill="#5859EC"/>
<path transform="translate(1476,311)" d="m0 0h9l6 3 4 5v13l-4 6-5 2h-11l-6-4-3-7 1-10 6-7z" fill="#5859EC"/>
<path transform="translate(220,1559)" d="m0 0h12l7 4 2 4v12l-4 7-3 2h-12l-6-3-3-5v-11l3-7z" fill="#5859EC"/>
<path transform="translate(654,310)" d="m0 0h7l6 3 4 5 1 3v8l-3 6-5 4-3 1h-9l-6-4-3-8v-7l4-8z" fill="#5859EC"/>
<path transform="translate(1071,726)" d="m0 0h7l6 3 3 3 1 3v11l-2 5-6 4-9 1-7-3-4-7v-12l3-5z" fill="#5859EC"/>
<path transform="translate(1057,1143)" d="m0 0h10l5 3 4 4 1 9-3 9-5 4h-12l-6-4-3-5v-9l3-7z" fill="#5859EC"/>
<path transform="translate(1062,1559)" d="m0 0h9l6 4 3 3 1 3v10l-4 6-5 3h-12l-5-4-3-7v-7l3-7 4-3z" fill="#5859EC"/>
<path transform="translate(230,727)" d="m0 0h9l6 4 3 3 1 3v9l-3 6-5 4h-13l-5-4-3-7v-7l3-7 4-3z" fill="#5859EC"/>
<path transform="translate(1477,1143)" d="m0 0h9l7 4 3 6v9l-3 6-3 3-3 1h-12l-5-4-3-7 1-9 4-7z" fill="#5859EC"/>
<path transform="translate(152,254)" d="m0 0 2 1-6 6-1 5h2l4 8 8 9 8 11 11 13-1 3-5-5-11-14-10-12-9-13v-5z" fill="#7267DC"/>
<path transform="translate(1548,86)" d="m0 0h10l40 4 5 1v1l-20-1-34-3z" fill="#9284E5"/>
<path transform="translate(184,229)" d="m0 0 4 1-12 10-5 2v2l-5 4-4-1 11-9 10-8z" fill="#7368DC"/>
<path transform="translate(193,322)" d="m0 0 5 1 7 10 1 1v5l-2-1v-3l-4-2-4-5-3-4z" fill="#B79FDF"/>
<path transform="translate(152,254)" d="m0 0 2 1-6 6-1 5h2l3 6-1 3-4-4-3-5v-5z" fill="#7066DD"/>
<path transform="translate(151,274)" d="m0 0 4 2 9 11-1 2-7-6-5-7z" fill="#7669DA"/>
<path transform="translate(175,236)" d="m0 0v3l-2 3h-2v2l-5 4-4-1 11-9z" fill="#6C64E0"/>
<path transform="translate(200,329)" d="m0 0h2l4 5v5l-2-1v-3l-4-2-1-3z" fill="#BEA6E2"/>
<path transform="translate(385,526)" d="m0 0 5 1v19h-1l-1-17z" fill="#7770E8"/>
</svg>
