<svg xmlns="http://www.w3.org/2000/svg" width="56" height="57" fill="#FFF6B8"><path fill="#F2F2F2" d="M27.9 26.6c2 3 4.6 5.6 7.1 7 1.2.8 2.4 1.2 3.4 1.4 1.3.2 2.5 0 3.4-.6l4.1-2.8c1.7-1.1 2.4-3.4 1.9-6.5-.5-3-1.9-6.2-4-9.3C39.5 9.2 33.4 5.7 30 8l-4.1 2.8c-1.7 1.1-2.4 3.4-1.9 6.5.5 3 1.9 6.2 4 9.3"/><path stroke="#F2F2F2" stroke-width="5.6" d="M27.9 26.6c2 3 4.6 5.6 7.1 7 1.2.8 2.4 1.2 3.4 1.4 1.3.2 2.5 0 3.4-.6l4.1-2.8c1.7-1.1 2.4-3.4 1.9-6.5-.5-3-1.9-6.2-4-9.3C39.5 9.2 33.4 5.7 30 8l-4.1 2.8c-1.7 1.1-2.4 3.4-1.9 6.5.5 3 1.9 6.2 4 9.3z"/><path fill="#005" d="M27.9 26.6c2 3 4.6 5.6 7.1 7 1.2.8 2.4 1.2 3.4 1.4 1.3.2 2.5 0 3.4-.6l4.1-2.8c1.7-1.1 2.4-3.4 1.9-6.5-.5-3-1.9-6.2-4-9.3C39.5 9.2 33.4 5.7 30 8l-4.1 2.8c-1.7 1.1-2.4 3.4-1.9 6.5.5 3 1.9 6.2 4 9.3"/><path d="M32 23.9c-3.1-4.7-4.5-9.4-3.9-12.7l-1.4 1c-1 .7-1.5 2.5-1.1 5a22 22 0 0 0 3.6 8.5 22 22 0 0 0 6.7 6.6c2 1.3 4 1.6 5 .8l1.4-.9c-1-.2-2-.6-3.2-1.3-2.5-1.4-5-4-7.1-7"/><path d="M30.9 9.4c-2.2 1.5-1.8 7.3 2.5 13.6a22 22 0 0 0 6.6 6.6c2.1 1.2 4 1.5 5 .7 1.2-.7 1.6-2.5 1.2-5a22 22 0 0 0-3.6-8.6c-3.1-4.6-6.8-7.2-9.4-7.7a3 3 0 0 0-2.3.4z"/><path d="M38.8 19.3c-.5 0-1-.3-1.7-.6a4 4 0 0 1 0 1.7h.2l1.5.7a4 4 0 0 1 0-1.8"/><path fill="#005" d="M38.8 19.3a4 4 0 0 0 0 1.8 4.2 4.2 0 0 0-1.7-.7 4 4 0 0 0 0-1.7 4 4 0 0 0 1.7.6m-3.4 1-.6.7c-.3.3-.3.7 0 1 .2.4.6.6 1 .4l.9-.3c.4-.2 1.8.4 3 2l1.2 1.7.6.3.6-.1c.4-.3.5-.8.2-1.2l-1-1.7c-1-1.8-1.2-3.2-.8-3.6l.6-.7c.3-.3.3-.7 0-1.1a.9.9 0 0 0-1-.4l-.8.4c-.5.2-1.9-.5-3.1-2.1L35 14c-.3-.4-.8-.5-1.2-.2s-.4.7-.2 1.2l1 1.6c1.1 1.8 1.2 3.3.8 3.7M15.7 34.7a34 34 0 0 1 7-5 .7.7 0 0 0-.9-1c-2.6 1.3-5 3-7 5a.7.7 0 1 0 .9 1M4.5 55.8l.1-.3a33.8 33.8 0 0 1 7-16.5c.3-.3.2-.8 0-1a.7.7 0 0 0-1.1.1l-1.7 2.4C5.8 45 3.9 50 3.2 55.3a.7.7 0 0 0 1.3.5"/></svg>