<svg width="210" height="40" fill="none" xmlns="http://www.w3.org/2000/svg"><path fill-rule="evenodd" clip-rule="evenodd" d="M75.438 15.487c-.884 0-1.595.29-2.134.868-.539.58-.808 1.384-.808 2.413 0 1.03.269 1.833.808 2.412.539.58 1.25.869 2.134.869.868 0 1.58-.297 2.135-.893.554-.595.832-1.39.832-2.388 0-1.013-.278-1.813-.832-2.4-.555-.588-1.267-.881-2.135-.881ZM59.69 15.487c-.884 0-1.596.29-2.134.868-.54.58-.808 1.384-.808 2.413 0 1.03.269 1.833.808 2.412.538.58 1.25.869 2.134.869.868 0 1.58-.297 2.135-.893.554-.595.832-1.39.832-2.388 0-1.013-.278-1.813-.832-2.4-.555-.588-1.267-.881-2.135-.881Z" fill="#005"/><path fill-rule="evenodd" clip-rule="evenodd" d="M205.66 23.762c-.418.595-1.021 1.062-1.809 1.4-.787.337-1.72.506-2.797.506-1.817 0-3.272-.402-4.366-1.207-.853-.626-1.442-1.467-1.777-2.515l3.755-.935c.064.58.309 1.022.736 1.328.426.305.977.458 1.652.458.466 0 .82-.109 1.061-.326.241-.217.362-.502.362-.856 0-.467-.222-.8-.664-1.001-.442-.201-1.161-.414-2.158-.64-.997-.208-1.817-.434-2.46-.675a4.054 4.054 0 0 1-1.664-1.17c-.467-.54-.7-1.275-.7-2.208 0-1.206.459-2.184 1.375-2.931.916-.748 2.211-1.122 3.883-1.122 1.704 0 3.067.426 4.088 1.278a5.41 5.41 0 0 1 1.683 2.477l-3.623.901h-.002c-.112-.546-.366-.977-.759-1.29-.395-.314-.889-.471-1.483-.471-.467 0-.82.1-1.062.301-.241.202-.361.487-.361.857 0 .418.22.732.663.941.442.21 1.137.418 2.086.627 1.029.242 1.873.487 2.532.736.659.25 1.23.656 1.712 1.218.483.564.724 1.32.724 2.268 0 .772-.209 1.456-.627 2.051ZM190.244 25.5l-4.43-5.718V25.5h-4.124V12.037h4.124v5.404l4.43-5.404h4.847l-5.426 6.73 5.547 6.732h-4.968Zm-11.783.838c-.964.7-2.106 1.144-3.427 1.335-1.321.19-2.546.087-3.675-.31a6.078 6.078 0 0 1-2.813-2.02c-.746-.95-1.219-2.116-1.418-3.501-.2-1.385-.076-2.638.372-3.759a6.081 6.081 0 0 1 2.128-2.732c.971-.7 2.117-1.146 3.438-1.337 1.321-.19 2.541-.086 3.663.313a6.095 6.095 0 0 1 2.743 1.952l-3.152 2.649a2.7 2.7 0 0 0-.665-.814c-.607-.49-1.3-.678-2.08-.566-.78.113-1.395.49-1.847 1.132-.452.642-.6 1.497-.447 2.563.154 1.067.537 1.84 1.151 2.32.613.481 1.309.665 2.09.552.779-.112 1.392-.485 1.836-1.118.196-.279.331-.602.41-.964l3.779 1.643a6.103 6.103 0 0 1-2.086 2.662Zm-13.877-.91-4.035-.727.431-2.398a4.21 4.21 0 0 1-1.951 1.585c-.811.328-1.723.4-2.735.218-1.092-.196-2.02-.645-2.784-1.346-.765-.702-1.303-1.612-1.616-2.73-.314-1.12-.347-2.367-.099-3.745.251-1.392.717-2.554 1.4-3.486.682-.93 1.503-1.592 2.464-1.983.961-.39 1.987-.488 3.079-.29 1.012.181 1.841.568 2.487 1.158a4.21 4.21 0 0 1 1.276 2.166l.432-2.398 4.035.727-2.384 13.249Zm-14.379.072h-4.125v-7.334c0-.9-.237-1.605-.711-2.111-.474-.507-1.106-.76-1.893-.76-.836 0-1.499.265-1.99.796-.49.53-.735 1.287-.735 2.268v7.14h-4.124V12.038h4.124v2.46c.385-.803.96-1.439 1.724-1.905.763-.467 1.66-.7 2.689-.7 1.544 0 2.77.515 3.678 1.544.908 1.03 1.363 2.445 1.363 4.246V25.5Zm-15.7-1.737c-.418.595-1.021 1.062-1.809 1.4-.788.337-1.72.506-2.797.506-1.817 0-3.272-.402-4.366-1.207-.853-.626-1.443-1.467-1.777-2.515l3.755-.935c.064.58.309 1.022.735 1.328.426.305.977.458 1.653.458.466 0 .82-.109 1.061-.326.241-.217.362-.502.362-.856 0-.467-.222-.8-.664-1.001-.442-.201-1.161-.414-2.158-.64-.997-.208-1.817-.434-2.46-.675a4.054 4.054 0 0 1-1.664-1.17c-.467-.54-.7-1.275-.7-2.208 0-1.206.459-2.184 1.375-2.931.916-.748 2.211-1.122 3.883-1.122 1.704 0 3.067.426 4.088 1.278a5.401 5.401 0 0 1 1.682 2.477l-3.622.901h-.002c-.113-.546-.366-.977-.759-1.29-.395-.314-.889-.471-1.483-.471-.467 0-.82.1-1.062.301-.241.202-.361.487-.361.857 0 .418.22.732.663.941.442.21 1.137.418 2.086.627 1.029.242 1.873.487 2.532.736.659.25 1.23.656 1.712 1.218.483.564.724 1.32.724 2.268 0 .772-.209 1.456-.627 2.051Zm-12.03-3.74h-9.733c.138.56.378 1.022.724 1.384.577.603 1.287.904 2.132.904.844 0 1.55-.3 2.119-.904.101-.108.19-.226.273-.351l3.609 1.482a6.09 6.09 0 0 1-2.421 2.298c-1.053.555-2.247.833-3.581.833-1.335 0-2.532-.277-3.594-.833a6.08 6.08 0 0 1-2.496-2.4c-.603-1.045-.904-2.268-.904-3.667 0-1.4.301-2.621.904-3.667a6.085 6.085 0 0 1 2.496-2.4c1.062-.556 2.259-.833 3.594-.833 1.334 0 2.528.277 3.581.832a6.104 6.104 0 0 1 2.484 2.4c.376.653.635 1.374.776 2.163.086.476.129.978.129 1.505 0 .436-.033.853-.092 1.255ZM107.156 25.5h-4.1v-7.334c0-.852-.229-1.516-.688-1.99-.457-.475-1.081-.712-1.868-.712-.82 0-1.468.253-1.942.76-.474.506-.712 1.218-.712 2.135v7.14h-4.123v-7.334c0-.852-.226-1.515-.675-1.99-.451-.474-1.07-.711-1.858-.711-.82 0-1.47.25-1.953.748-.482.498-.724 1.214-.724 2.147v7.14H84.39V12.038h4.124v2.292a4.014 4.014 0 0 1 1.628-1.786c.732-.434 1.588-.651 2.569-.651 1.029 0 1.937.238 2.725.712s1.383 1.154 1.785 2.038a5.395 5.395 0 0 1 1.917-2.002 5.039 5.039 0 0 1 2.689-.748c1.656 0 2.958.51 3.907 1.532.949 1.021 1.423 2.441 1.423 4.258V25.5Zm-24.65 0h-4.1v-2.436a4.212 4.212 0 0 1-1.64 1.905c-.74.467-1.625.7-2.654.7-1.11 0-2.102-.277-2.978-.833-.877-.554-1.568-1.355-2.074-2.4-.507-1.045-.76-2.268-.76-3.667 0-1.415.253-2.642.76-3.68.506-1.037 1.197-1.833 2.074-2.388.876-.555 1.869-.832 2.978-.832 1.029 0 1.913.233 2.653.7a4.214 4.214 0 0 1 1.64 1.905v-2.436h4.1v13.462Zm-15.75.9a4.538 4.538 0 0 1-4.537 4.539h-7.918v-3.45h7.367a.99.99 0 0 0 .989-.99v-3.436c-.354.804-.901 1.44-1.64 1.906-.74.467-1.625.7-2.654.7-1.109 0-2.102-.277-2.978-.833-.877-.554-1.567-1.355-2.074-2.4-.507-1.045-.76-2.268-.76-3.667 0-1.415.253-2.642.76-3.68.507-1.037 1.197-1.833 2.074-2.388.876-.555 1.87-.832 2.978-.832 1.03 0 1.914.233 2.654.7a4.213 4.213 0 0 1 1.64 1.905v-2.436h4.1v14.362Zm142.1-6.12a6.726 6.726 0 0 0-.325-.35l-.104-.103c-.034-.036-.069-.07-.104-.104-.034-.036-.069-.07-.104-.104-.033-.035-.069-.069-.103-.103-.034-.036-.069-.07-.104-.104l-.053-.053.291-.073a1.743 1.743 0 0 0 1.231-2.247 7.157 7.157 0 0 0-1.863-2.943c-.035-.034-.069-.07-.104-.103-.035-.035-.068-.07-.104-.104-.035-.035-.068-.07-.104-.104l-.103-.104c-.035-.034-.068-.07-.104-.103-.035-.035-.068-.07-.104-.104l-.103-.104c-.035-.034-.068-.07-.104-.103l-.103-.104-.104-.104c-.035-.034-.068-.07-.104-.104-.035-.034-.068-.07-.104-.103-.034-.035-.067-.07-.103-.104-.035-.034-.068-.07-.104-.104-.034-.034-.068-.07-.103-.103l-.104-.104c-.035-.034-.068-.07-.104-.104-.034-.034-.068-.07-.103-.103a7.699 7.699 0 0 0-.458-.42c-1.338-1.118-3.089-1.684-5.205-1.684-.68 0-1.312.06-1.904.168h-7.941c-.522 0-1.016.235-1.347.638l-.778.949a1.876 1.876 0 0 0-.09-.088 1.726 1.726 0 0 0-.104-.104 1.678 1.678 0 0 0-.103-.104 1.728 1.728 0 0 0-.104-.104 2.093 2.093 0 0 0-.103-.103 2.036 2.036 0 0 0-.104-.104 1.788 1.788 0 0 0-.104-.104 1.815 1.815 0 0 0-.104-.103 1.735 1.735 0 0 0-.103-.104 1.694 1.694 0 0 0-.104-.104 1.735 1.735 0 0 0-1.282-.565h-4.123c-.963 0-1.743.781-1.743 1.744v2.219a7.803 7.803 0 0 0-2.635-1.573 8.918 8.918 0 0 0-2.997-.505c-.487 0-.991.037-1.498.11a9.98 9.98 0 0 0-2.564.719 1.693 1.693 0 0 0-.142-.144 1.71 1.71 0 0 0-.103-.104 1.697 1.697 0 0 0-.104-.104 1.519 1.519 0 0 0-.104-.104 1.766 1.766 0 0 0-.103-.103 1.498 1.498 0 0 0-.104-.104 1.519 1.519 0 0 0-.104-.104 1.458 1.458 0 0 0-.103-.104 1.64 1.64 0 0 0-.104-.103 1.475 1.475 0 0 0-.104-.104 1.482 1.482 0 0 0-.103-.104 1.818 1.818 0 0 0-.104-.103 1.519 1.519 0 0 0-.104-.104 1.732 1.732 0 0 0-.103-.104 1.726 1.726 0 0 0-.104-.103 1.624 1.624 0 0 0-.103-.104 1.728 1.728 0 0 0-.104-.104 1.815 1.815 0 0 0-.104-.103 1.8 1.8 0 0 0-.103-.104 1.736 1.736 0 0 0-.97-.534l-4.038-.727c-.47-.084-.929.03-1.293.282a5.107 5.107 0 0 0-.469-.318v.004c-.707-.431-1.521-.731-2.431-.895-1.417-.255-2.777-.123-4.044.392-1.259.512-2.34 1.376-3.213 2.568a8.575 8.575 0 0 0-.797 1.342l-.014-.013c-.034-.036-.069-.07-.103-.104a9.257 9.257 0 0 0-.104-.104l-.104-.104-.104-.104c-.033-.035-.068-.069-.103-.103l-.104-.104a5.295 5.295 0 0 0-.103-.103c-.034-.036-.069-.07-.104-.104l-.103-.104-.104-.103c-1.226-1.268-2.831-1.911-4.777-1.911-.945 0-1.82.158-2.616.47a3.44 3.44 0 0 0-.484.253l-.019-.02a1.736 1.736 0 0 0-1.175-.554l-4.244-.005c-.963 0-1.743.781-1.743 1.744v.479l-.074-.073c-.035-.035-.068-.07-.104-.104l-.103-.104a7.384 7.384 0 0 0-.465-.427c-1.338-1.117-3.089-1.683-5.204-1.683-2.077 0-3.754.51-4.985 1.514a5.488 5.488 0 0 0-1.356 1.62c-.018-.02-.037-.037-.055-.055l-.104-.104-.104-.103c-.033-.036-.069-.07-.103-.104-.034-.036-.069-.069-.104-.104-.033-.035-.069-.069-.103-.104a7.849 7.849 0 0 0-2.03-1.528c-1.301-.685-2.779-1.032-4.393-1.032-1.612 0-3.093.346-4.401 1.03a7.782 7.782 0 0 0-2.801 2.464c-.033-.032-.064-.065-.097-.096l-.104-.104-.104-.104a5.66 5.66 0 0 0-.104-.104l-.103-.104c-.035-.034-.069-.07-.104-.103-.034-.035-.068-.07-.104-.104l-.103-.104c-.035-.034-.069-.07-.104-.103l-.103-.104-.104-.104c-.035-.034-.069-.07-.104-.103-.034-.035-.068-.07-.104-.104l-.103-.104c-.035-.034-.069-.07-.104-.103-1.27-1.275-2.957-1.922-5.02-1.922a6.783 6.783 0 0 0-3.601 1.005c-.33.203-.638.427-.925.673a6.175 6.175 0 0 0-.966-.717c-1.06-.638-2.279-.961-3.624-.961-.882 0-1.703.14-2.454.417v-.003a4.258 4.258 0 0 0-.506.236 1.739 1.739 0 0 0-1.224-.506H78.403c-.478.001-.91.194-1.223.507a5.035 5.035 0 0 0-.518-.23v.004c-.772-.298-1.626-.45-2.55-.45-1.44 0-2.755.372-3.91 1.103a6.885 6.885 0 0 0-1.01.785l-.014-.013a1.742 1.742 0 0 0-.103-.104 1.661 1.661 0 0 0-.104-.103 1.72 1.72 0 0 0-.103-.104 1.69 1.69 0 0 0-.104-.104 1.69 1.69 0 0 0-.104-.104 1.943 1.943 0 0 0-.103-.103 1.878 1.878 0 0 0-.104-.104 1.853 1.853 0 0 0-.104-.104 1.808 1.808 0 0 0-.103-.103 1.808 1.808 0 0 0-.104-.104 1.745 1.745 0 0 0-.104-.104 1.736 1.736 0 0 0-1.281-.565h-4.18a1.734 1.734 0 0 0-1.164.535 3.855 3.855 0 0 0-.517-.26c-.768-.294-1.615-.443-2.532-.443-1.44 0-2.756.37-3.91 1.102-1.15.727-2.06 1.77-2.709 3.096-.621 1.273-.936 2.768-.936 4.445 0 1.659.314 3.148.934 4.427.395.815.89 1.521 1.474 2.114.034.036.07.069.104.104.034.036.07.069.104.104l.104.103c.033.036.069.07.103.104l.02.02h-.098a.996.996 0 0 0-.996.997v4.197c0 .508.218.963.565 1.282.033.036.067.07.103.104.034.036.068.07.104.104.033.036.068.07.104.103.033.036.067.07.103.104.033.036.068.07.104.104.033.036.068.07.104.104.033.036.067.07.103.103.033.036.068.07.104.104.033.036.068.07.103.103.034.037.068.071.104.104.034.036.068.07.104.104.033.036.068.07.103.104.034.036.068.07.104.103.034.036.068.07.104.104.033.036.068.07.104.104.033.036.067.07.103.103.033.036.068.07.104.104.033.036.068.07.104.104.318.346.774.565 1.281.565h7.919a6.281 6.281 0 0 0 6.28-6.282v-1.563l.054.053c.034.036.07.069.104.103.033.036.069.07.103.104.034.036.07.07.104.104.401.426.846.797 1.337 1.108 1.155.731 2.471 1.102 3.91 1.102.925 0 1.779-.15 2.551-.45v.001c.158-.06.336-.135.519-.225a1.73 1.73 0 0 0 1.224.506h10.108c.962 0 1.742-.781 1.742-1.744v-1.081c.088.146.195.278.32.393.033.036.067.07.103.104.033.036.068.07.104.104.033.035.068.07.104.103.033.036.067.07.103.104.033.036.068.07.104.104.033.036.068.07.104.103.033.037.067.07.103.104.033.036.068.07.104.104.033.036.067.07.103.103.034.036.068.07.104.104.033.036.068.07.104.104.033.036.067.07.103.103.034.036.068.07.104.104.033.036.068.07.104.104.033.036.068.07.103.104.034.035.068.07.104.103.033.036.068.07.104.104.033.036.067.07.103.104.319.346.775.565 1.282.565h4.124c.962 0 1.743-.781 1.743-1.744v-1.082c.087.147.195.28.319.394.033.036.068.07.104.104.033.036.068.07.104.104.033.035.067.07.103.103.033.036.068.07.104.104.033.036.068.07.103.104.034.036.068.07.104.103.033.037.068.07.104.104.033.036.067.07.103.104.034.036.068.07.104.103.033.036.068.07.104.104.033.036.067.07.104.104.033.036.067.07.103.103.033.036.068.07.104.104.033.036.067.07.104.104.033.036.067.07.103.104.033.035.068.07.104.103.033.036.067.07.104.104.032.036.067.07.103.104.318.346.774.565 1.282.565h4.099c.963 0 1.743-.781 1.743-1.744v-.907l.015.012.103.104c.035.034.069.07.104.103.035.035.068.07.104.104l.103.104a7.823 7.823 0 0 0 1.869 1.362c1.308.684 2.788 1.03 4.4 1.03 1.614 0 3.092-.347 4.395-1.033a7.784 7.784 0 0 0 2.648-2.274l.055.054c.033.036.07.069.104.104.032.036.07.068.103.103.033.037.07.069.104.104.033.036.07.068.104.104.033.036.07.068.104.104.032.036.069.068.103.103.033.036.07.069.104.104.033.036.07.068.103.103.292.322.618.615.977.879 1.393 1.025 3.21 1.545 5.398 1.545 1.31 0 2.482-.218 3.484-.647a6.538 6.538 0 0 0 1.302-.743l.039.035c.033.036.067.07.103.103.033.037.068.071.104.104.033.036.068.07.104.104.033.036.067.07.103.104.033.036.068.07.104.103.033.036.068.07.103.104.319.346.775.565 1.282.565h4.124c.963 0 1.743-.781 1.743-1.744v-1.323c.098.244.249.46.44.635.033.036.067.07.103.104.033.036.068.07.104.104.033.035.068.07.104.103.033.036.067.07.103.104.033.036.068.07.104.104.033.036.067.07.104.103.032.037.067.07.103.104.033.036.068.07.104.104.033.036.067.07.103.103.033.036.068.07.104.104.033.036.068.07.104.104.033.036.067.07.104.103.032.036.067.07.103.104.033.036.068.07.104.104.033.036.067.07.104.104.032.035.067.07.103.103.033.036.068.07.104.104.033.036.067.07.103.104.319.346.774.565 1.282.565h4.124c.963 0 1.743-.781 1.743-1.744v-1.838c.123.133.251.26.384.383 1.007.924 2.237 1.522 3.653 1.777.91.164 1.777.167 2.59.01.158-.03.337-.07.522-.122l.074.072c.033.035.067.07.103.103.248.268.58.463.967.532l4.034.727c.947.17 1.854-.46 2.024-1.407l.018-.098.09.09c.034.034.068.07.103.103l.104.105c.035.034.069.07.104.103l.103.104c.035.034.069.07.104.103l.104.104.103.104c.035.034.069.07.104.103.035.035.068.07.104.104l.103.104.104.104c.035.034.068.07.104.103l.103.104c.035.034.069.07.104.103a7.8 7.8 0 0 0 2.923 1.827 9.016 9.016 0 0 0 3 .502c.489 0 .994-.037 1.503-.11 1.597-.23 3.01-.786 4.201-1.65a7.942 7.942 0 0 0 1.065-.933c.306.266.704.428 1.141.428h4.124c.962 0 1.743-.781 1.743-1.744v-.224c.017.018.036.034.055.05.033.037.068.071.104.104.033.037.068.071.103.104.034.037.068.07.104.104.033.036.068.07.104.104.033.036.067.07.103.103.033.036.068.07.104.104.033.036.068.07.104.104.033.036.067.07.103.104.033.036.068.07.104.103.033.036.068.07.104.104.033.036.067.07.103.104.033.036.068.07.104.103.033.037.067.07.103.104.329.36.794.569 1.285.569h8.663l-.023-.028c.677.128 1.398.196 2.169.196 1.31 0 2.483-.218 3.485-.647 1.085-.466 1.942-1.138 2.548-2 .626-.89.943-1.918.943-3.053 0-1.372-.384-2.517-1.143-3.402Z" fill="#005"/><path fill-rule="evenodd" clip-rule="evenodd" d="M115.585 15.12c-1.174 0-2.533.537-2.774 2.392h5.618c-.211-1.725-1.548-2.393-2.844-2.393ZM159.402 14.32c-.87-.156-1.621.003-2.254.477-.633.475-1.04 1.219-1.222 2.231-.183 1.014-.061 1.853.367 2.518.428.665 1.077 1.076 1.947 1.233.854.154 1.608-.013 2.259-.5.651-.487 1.065-1.222 1.242-2.203.179-.998.048-1.834-.394-2.51-.442-.676-1.09-1.091-1.945-1.245Z" fill="#005"/><path fill-rule="evenodd" clip-rule="evenodd" d="M132.696 18.225c-.66-.249-1.504-.494-2.532-.736-.95-.209-1.645-.418-2.087-.627-.442-.209-.663-.522-.663-.94 0-.37.121-.656.362-.857.241-.201.595-.302 1.061-.302.595 0 1.089.157 1.483.47.394.314.647.745.76 1.291h.002l3.622-.901a5.411 5.411 0 0 0-1.683-2.476c-1.021-.853-2.384-1.279-4.088-1.279-1.672 0-2.966.374-3.883 1.122-.916.748-1.374 1.725-1.374 2.931 0 .933.233 1.669.699 2.207a4.06 4.06 0 0 0 1.664 1.17c.643.242 1.463.468 2.46.676.997.226 1.716.439 2.159.64.442.2.663.534.663 1 0 .355-.12.64-.362.857-.241.217-.595.326-1.061.326-.675 0-1.226-.153-1.652-.458-.426-.306-.671-.748-.736-1.327l-3.754.934c.334 1.048.924 1.888 1.777 2.515 1.093.805 2.548 1.207 4.365 1.207 1.077 0 2.01-.169 2.798-.507.787-.338 1.39-.804 1.809-1.399.418-.595.627-1.279.627-2.05 0-.95-.242-1.706-.724-2.268a4.183 4.183 0 0 0-1.712-1.219ZM112.809 17.512c.241-1.855 1.6-2.393 2.775-2.393 1.296 0 2.632.668 2.843 2.393h-5.618Zm8.852-2.41a6.102 6.102 0 0 0-2.484-2.402c-1.053-.554-2.247-.832-3.581-.832-1.335 0-2.532.277-3.594.832a6.083 6.083 0 0 0-2.496 2.401c-.603 1.046-.904 2.268-.904 3.667 0 1.4.301 2.622.904 3.667a6.08 6.08 0 0 0 2.496 2.4c1.062.555 2.259.833 3.594.833 1.334 0 2.528-.277 3.581-.832a6.092 6.092 0 0 0 2.421-2.298l-3.609-1.483a2.739 2.739 0 0 1-.273.35c-.569.604-1.275.906-2.119.906-.845 0-1.555-.302-2.132-.905-.346-.362-.586-.824-.725-1.383h9.734c.059-.402.092-.819.092-1.255 0-.527-.043-1.029-.129-1.505a6.62 6.62 0 0 0-.776-2.162ZM61.824 21.156c-.555.596-1.266.893-2.135.893-.884 0-1.595-.29-2.134-.869-.539-.578-.808-1.383-.808-2.412 0-1.03.27-1.834.808-2.413.539-.579 1.25-.868 2.134-.868.869 0 1.58.293 2.135.88.554.588.832 1.388.832 2.4 0 .999-.278 1.794-.832 2.39Zm.832-6.682a4.211 4.211 0 0 0-1.64-1.906c-.74-.467-1.624-.7-2.653-.7-1.11 0-2.102.277-2.979.832-.876.555-1.567 1.351-2.074 2.389-.506 1.037-.76 2.264-.76 3.679 0 1.4.254 2.622.76 3.667.507 1.045 1.198 1.846 2.074 2.4.877.555 1.87.833 2.979.833 1.029 0 1.913-.233 2.653-.7a4.21 4.21 0 0 0 1.64-1.905v3.436a.99.99 0 0 1-.989.989H54.3v3.45h7.919a4.538 4.538 0 0 0 4.537-4.539V12.037h-4.1v2.436ZM77.572 21.156c-.555.596-1.266.893-2.135.893-.884 0-1.595-.29-2.134-.869-.539-.578-.808-1.383-.808-2.412 0-1.03.27-1.834.808-2.413.539-.579 1.25-.868 2.135-.868.868 0 1.58.293 2.134.88.555.588.832 1.388.832 2.4 0 .999-.277 1.794-.832 2.39Zm.832-6.682a4.211 4.211 0 0 0-1.64-1.906c-.74-.467-1.624-.7-2.653-.7-1.11 0-2.102.277-2.979.832-.876.555-1.567 1.351-2.073 2.389-.507 1.037-.76 2.264-.76 3.679 0 1.4.253 2.622.76 3.667.506 1.045 1.197 1.846 2.073 2.4.877.555 1.87.833 2.98.833 1.028 0 1.912-.233 2.652-.7a4.21 4.21 0 0 0 1.64-1.905v2.436h4.1V12.037h-4.1v2.436ZM101.825 11.892c-.981 0-1.877.25-2.689.748a5.393 5.393 0 0 0-1.917 2.002c-.402-.884-.997-1.564-1.785-2.038-.788-.474-1.696-.712-2.725-.712-.98 0-1.837.217-2.569.652a4.014 4.014 0 0 0-1.627 1.785v-2.292h-4.124v13.462h4.124v-7.141c0-.933.24-1.649.723-2.147.482-.499 1.133-.748 1.954-.748.787 0 1.406.237 1.857.711.45.475.675 1.139.675 1.99V25.5h4.124v-7.141c0-.917.237-1.629.712-2.135.474-.507 1.12-.76 1.941-.76.787 0 1.411.237 1.869.711.458.475.688 1.139.688 1.99V25.5h4.099v-7.817c0-1.817-.474-3.236-1.423-4.258-.949-1.021-2.251-1.532-3.907-1.532ZM145.165 11.892c-1.03 0-1.926.233-2.69.7a4.445 4.445 0 0 0-1.724 1.906v-2.461h-4.124v13.462h4.124v-7.141c0-.981.245-1.738.736-2.268.49-.53 1.153-.796 1.989-.796.788 0 1.419.253 1.893.76.475.506.712 1.21.712 2.11V25.5h4.124v-7.817c0-1.8-.454-3.216-1.363-4.246-.908-1.03-2.134-1.544-3.677-1.544ZM161.74 18.076c-.176.981-.59 1.715-1.242 2.203-.651.487-1.404.654-2.259.5-.87-.157-1.519-.567-1.946-1.233-.428-.665-.55-1.505-.368-2.518.182-1.012.589-1.756 1.222-2.231.633-.474 1.384-.633 2.254-.476.855.154 1.503.569 1.946 1.245.441.676.573 1.512.393 2.51Zm.761-4.227a4.216 4.216 0 0 0-1.276-2.166c-.646-.59-1.475-.977-2.488-1.159-1.091-.197-2.118-.1-3.079.291-.96.39-1.782 1.052-2.464 1.983-.682.932-1.148 2.094-1.399 3.486-.248 1.378-.215 2.626.099 3.744.313 1.12.851 2.03 1.615 2.73.764.702 1.692 1.15 2.784 1.347 1.013.183 1.925.11 2.735-.218a4.207 4.207 0 0 0 1.952-1.585l-.432 2.398 4.035.727 2.384-13.25-4.034-.726-.432 2.398ZM176.358 22.996c-.444.633-1.057 1.006-1.837 1.118-.78.113-1.476-.071-2.089-.552-.614-.48-.997-1.253-1.151-2.32-.154-1.066-.005-1.92.447-2.563a2.626 2.626 0 0 1 1.847-1.132c.78-.112 1.473.076 2.08.566a2.7 2.7 0 0 1 .665.814l3.152-2.65a6.095 6.095 0 0 0-2.743-1.951c-1.122-.4-2.342-.503-3.663-.313-1.322.191-2.467.636-3.438 1.337a6.08 6.08 0 0 0-2.128 2.732c-.448 1.121-.572 2.374-.372 3.759.199 1.385.672 2.552 1.418 3.5a6.079 6.079 0 0 0 2.813 2.02c1.13.398 2.354.501 3.675.31 1.321-.19 2.463-.634 3.426-1.334a6.097 6.097 0 0 0 2.087-2.662l-3.779-1.643c-.08.362-.214.685-.41.964ZM195.093 12.037h-4.848l-4.43 5.404v-5.404h-4.124v13.462h4.124V19.78l4.43 5.718h4.968l-5.547-6.731 5.427-6.731Z" fill="#F2F2F2"/><path fill-rule="evenodd" clip-rule="evenodd" d="M203.852 18.225c-.659-.249-1.504-.494-2.532-.736-.949-.209-1.645-.418-2.087-.627-.442-.209-.663-.522-.663-.94 0-.37.121-.656.362-.857.241-.201.595-.302 1.061-.302.595 0 1.089.157 1.484.47.393.314.646.745.759 1.291h.002l3.622-.901a5.404 5.404 0 0 0-1.683-2.476c-1.021-.853-2.383-1.279-4.088-1.279-1.672 0-2.966.374-3.883 1.122-.916.748-1.374 1.725-1.374 2.931 0 .933.233 1.669.699 2.207a4.06 4.06 0 0 0 1.664 1.17c.643.242 1.463.468 2.46.676.997.226 1.716.439 2.159.64.442.2.663.534.663 1 0 .355-.12.64-.362.857-.241.217-.595.326-1.061.326-.675 0-1.226-.153-1.652-.458-.426-.306-.671-.748-.735-1.327l-3.755.934c.334 1.048.924 1.888 1.777 2.515 1.093.805 2.548 1.207 4.365 1.207 1.077 0 2.01-.169 2.798-.507.787-.338 1.39-.804 1.809-1.399.418-.595.627-1.279.627-2.05 0-.95-.242-1.706-.724-2.268a4.183 4.183 0 0 0-1.712-1.219Z" fill="#F2F2F2"/><path fill-rule="evenodd" clip-rule="evenodd" d="M37.814 7.435c0 1.47-.542 2.812-1.437 3.84-.62.713-.805 1.716-.406 2.572a8.586 8.586 0 0 1 .802 3.633v14.364a4.43 4.43 0 0 1-4.429 4.43H7.05a4.43 4.43 0 0 1-4.428-4.43V17.48c0-1.298.287-2.529.801-3.633.399-.856.215-1.86-.405-2.572a5.852 5.852 0 0 1 4.414-9.694h24.53a5.852 5.852 0 0 1 5.852 5.854Zm3.724 2.144c0-2.079-.858-3.96-2.237-5.31a11.752 11.752 0 0 0-.226-.226 7.805 7.805 0 0 0-.112-.113 10.712 10.712 0 0 0-.338-.338 8.338 8.338 0 0 0-.114-.113 8.348 8.348 0 0 0-.112-.113 9.02 9.02 0 0 0-.113-.113 9.747 9.747 0 0 0-.226-.225 7.805 7.805 0 0 0-.113-.113 9.745 9.745 0 0 0-.112-.113 9.674 9.674 0 0 0-.113-.113 9.02 9.02 0 0 0-.113-.113 8.455 8.455 0 0 0-.113-.112 8.348 8.348 0 0 0-.113-.114 7.79 7.79 0 0 0-.113-.112A7.408 7.408 0 0 0 31.963 0H7.432C3.334 0 0 3.335 0 7.435c0 1.794.648 3.527 1.826 4.879.225.258.289.598.164.866-.63 1.352-.949 2.8-.949 4.3v14.364c0 1.686.698 3.212 1.82 4.304.037.038.074.076.113.113.037.038.074.076.113.113l.112.113.113.112c.037.039.075.076.113.113.037.039.075.076.113.113.037.038.074.076.113.113.036.038.074.076.112.113l.113.113.113.113.113.112c.037.039.074.076.113.113.037.038.074.076.113.113.036.038.074.076.112.113l.113.113.113.113c.037.038.074.075.113.112.037.039.074.076.113.113A5.989 5.989 0 0 0 9.193 40h25.295a6.017 6.017 0 0 0 6.009-6.011V19.625c0-1.502-.32-2.948-.95-4.301-.124-.268-.06-.608.165-.866a7.429 7.429 0 0 0 1.826-4.88Z" fill="#005"/><path fill-rule="evenodd" clip-rule="evenodd" d="M31.323 17.7c0 2.373-1.917 4.417-4.274 4.557a141.058 141.058 0 0 1-15.023 0c-2.362-.14-4.279-2.184-4.279-4.558v-7.544c0-2.373 1.917-4.418 4.274-4.558 4.988-.266 10.04-.266 15.023 0h.005c2.357.14 4.274 2.185 4.274 4.558v7.544Zm-2.7 11.987a1.219 1.219 0 1 1 0-2.437 1.219 1.219 0 0 1 0 2.437Zm-2.777-2.779a1.218 1.218 0 1 1 0-2.436 1.218 1.218 0 0 1 0 2.436Zm0 5.558a1.218 1.218 0 1 1 0-2.437 1.218 1.218 0 0 1 0 2.437Zm-2.778-2.779a1.219 1.219 0 1 1 0-2.437 1.219 1.219 0 0 1 0 2.437Zm-6.785 0h-1.84v1.84a1.219 1.219 0 0 1-2.437 0v-1.84h-1.84a1.219 1.219 0 0 1 0-2.438h1.84v-1.84a1.219 1.219 0 1 1 2.437 0v1.84h1.84a1.219 1.219 0 0 1 0 2.438ZM31.962 1.581H7.432a5.852 5.852 0 0 0-4.415 9.694c.62.713.804 1.716.406 2.572a8.586 8.586 0 0 0-.802 3.633v14.364a4.43 4.43 0 0 0 4.429 4.43h25.294a4.43 4.43 0 0 0 4.428-4.43V17.48c0-1.298-.287-2.529-.8-3.633-.4-.856-.216-1.86.404-2.572a5.852 5.852 0 0 0-4.414-9.694Z" fill="#F2F2F2"/><path fill-rule="evenodd" clip-rule="evenodd" d="M16.285 27.25h-1.84v-1.841a1.219 1.219 0 1 0-2.437 0v1.84h-1.84a1.218 1.218 0 0 0 0 2.438h1.84v1.84a1.218 1.218 0 1 0 2.436 0v-1.84h1.84a1.218 1.218 0 0 0 0-2.438ZM25.847 24.47a1.218 1.218 0 1 0 0 2.438 1.218 1.218 0 0 0 0-2.437ZM25.847 30.028a1.218 1.218 0 1 0 0 2.437 1.218 1.218 0 0 0 0-2.437ZM28.625 27.25a1.219 1.219 0 1 0 0 2.436 1.219 1.219 0 0 0 0-2.437ZM23.068 27.25a1.218 1.218 0 1 0 0 2.436 1.218 1.218 0 0 0 0-2.437Z" fill="#005"/><path fill-rule="evenodd" clip-rule="evenodd" d="M21.497 11.874c0-.982.85-1.779 1.9-1.779 1.048 0 1.898.797 1.898 1.779h-3.798Zm2.996 3.534a5.31 5.31 0 0 1-4.957 3.363 5.31 5.31 0 0 1-4.957-3.363l-.11-.277 1.655-.66.11.277a3.537 3.537 0 0 0 3.302 2.24c1.463 0 2.76-.88 3.301-2.24l.11-.277 1.656.66-.11.277Zm-8.818-5.313c1.05 0 1.9.797 1.9 1.779h-3.798c0-.982.85-1.779 1.898-1.779Zm11.283-2.92a139.24 139.24 0 0 0-14.847 0c-1.506.09-2.783 1.455-2.783 2.98v7.544c0 1.526 1.277 2.89 2.788 2.98 4.922.262 9.918.262 14.845 0 1.506-.09 2.783-1.454 2.783-2.98v-7.544c0-1.525-1.276-2.889-2.786-2.98Z" fill="#6C7EFF"/><path fill-rule="evenodd" clip-rule="evenodd" d="M29.744 17.7c0 1.525-1.277 2.89-2.783 2.978-4.927.263-9.923.263-14.845 0-1.511-.089-2.788-1.453-2.788-2.979v-7.544c0-1.525 1.277-2.89 2.783-2.98a139.583 139.583 0 0 1 14.847 0c1.51.091 2.786 1.455 2.786 2.98v7.544ZM27.05 5.596h-.005a141.532 141.532 0 0 0-15.022 0c-2.358.14-4.275 2.185-4.275 4.558v7.544c0 2.374 1.917 4.418 4.279 4.558a141.156 141.156 0 0 0 15.023 0c2.357-.14 4.274-2.184 4.274-4.558v-7.544c0-2.373-1.917-4.418-4.274-4.558Z" fill="#005"/><path fill-rule="evenodd" clip-rule="evenodd" d="M15.676 10.095c-1.049 0-1.899.796-1.899 1.779h3.798c0-.982-.85-1.779-1.899-1.779ZM23.397 10.095c-1.049 0-1.899.796-1.899 1.779h3.797c0-.982-.85-1.779-1.898-1.779ZM22.837 14.748a3.537 3.537 0 0 1-3.301 2.24 3.537 3.537 0 0 1-3.302-2.24l-.11-.277-1.655.66.11.277a5.31 5.31 0 0 0 4.957 3.362 5.31 5.31 0 0 0 4.956-3.362l.111-.278-1.655-.66-.11.278Z" fill="#005"/></svg>