<svg width="592" height="428" viewBox="0 0 592 428" fill="none" xmlns="http://www.w3.org/2000/svg">
            <g opacity="0.6" clip-path="url(#clip0_4374_327993)">
            <mask id="mask0_4374_327993" style="mask-type:alpha" maskUnits="userSpaceOnUse" x="0" y="0" width="592" height="428">
            <ellipse cx="296" cy="214" rx="296" ry="214" fill="url(#paint0_radial_4374_327993)"></ellipse>
            </mask>
            <g mask="url(#mask0_4374_327993)">
            <g class="beams__mask">
            <path d="M591.842 214.171C591.842 245.197 586.958 276.03 577.371 305.538L296.171 214.171H591.842Z" fill="#F7C21A"></path>
            <path d="M552.23 362.006C536.716 388.876 517.071 413.136 494.013 433.897L296.171 214.171L552.23 362.006Z" fill="#F7C21A"></path>
            <path d="M444.006 470.229C417.137 485.742 387.993 496.93 357.644 503.38L296.171 214.171L444.006 470.229Z" fill="#F7C21A"></path>
            <path d="M296.171 509.841C265.145 509.841 234.311 504.958 204.804 495.37L296.171 214.171V509.841Z" fill="#F7C21A"></path>
            <path d="M148.335 470.229C121.466 454.716 97.2053 435.07 76.4446 412.013L296.171 214.171L148.335 470.229Z" fill="#F7C21A"></path>
            <path d="M40.1124 362.006C24.5992 335.136 13.4119 305.992 6.96112 275.644L296.171 214.171L40.1124 362.006Z" fill="#F7C21A"></path>
            <path d="M0.5 214.17C0.500003 183.144 5.38349 152.311 14.9712 122.803L296.171 214.171L0.5 214.17Z" fill="#F7C21A"></path>
            <path d="M40.1124 66.335C55.6256 39.4653 75.2714 15.2048 98.3285 -5.55589L296.171 214.171L40.1124 66.335Z" fill="#F7C21A"></path>
            <path d="M148.335 -41.888C175.205 -57.4012 204.349 -68.5885 234.697 -75.0393L296.171 214.171L148.335 -41.888Z" fill="#F7C21A"></path>
            <path d="M296.171 -81.5005C327.197 -81.5005 358.031 -76.617 387.538 -67.0293L296.171 214.171V-81.5005Z" fill="#F7C21A"></path>
            <path d="M444.006 -41.8881C470.876 -26.3749 495.137 -6.72913 515.897 16.328L296.171 214.171L444.006 -41.8881Z" fill="#F7C21A"></path>
            <path d="M552.23 66.335C567.743 93.2046 578.93 122.349 585.381 152.697L296.171 214.171L552.23 66.335Z" fill="#F7C21A"></path>
            </g>
            </g>
            </g>
            <defs>
            <radialGradient id="paint0_radial_4374_327993" cx="0" cy="0" r="1" gradientUnits="userSpaceOnUse" gradientTransform="translate(296 214) rotate(90) scale(214 296)">
            <stop stop-color="#D9D9D9" stop-opacity="0.59"></stop>
            <stop offset="0.689236" stop-color="#D9D9D9" stop-opacity="0.07"></stop>
            <stop offset="1" stop-color="#D9D9D9" stop-opacity="0"></stop>
            </radialGradient>
            <clipPath id="clip0_4374_327993">
            <rect width="592" height="428" fill="white"></rect>
            </clipPath>
            </defs>
          </svg>