<?xml version="1.0" encoding="UTF-8"?>
<svg version="1.1" viewBox="0 0 1664 1664" width="1280" height="1280" xmlns="http://www.w3.org/2000/svg">
<path transform="translate(1135,16)" d="m0 0h447l18 5 15 8 11 8 8 8 8 13 5 11 3 11 2 26v63l-2 49v144l-1 257v390l1 161v86l-1 87v26l1 55 2 46v97l-1 15-4 15-8 16-8 11-7 7-10 7-12 6-14 4-21 3-120 1h-328l-199-1h-755l-64-1-23-1-18-6-14-9-12-12-9-14-5-12-2-17-2-50v-54l1-66v-153l2-131v-90l-1-178v-141l1-201v-435l3-8 8-14 6-9 8-8 13-10 13-9 8-4 4-1h41l11 1h32l11-1h23l15 1 106 1h478l201-1 84-1z" fill="#12161C"/>
<path transform="translate(604,1091)" d="m0 0h455l8 6 3 4v318l-10 3-10 9-8 8-2 6v11l4 10 10 5 5 1 11-2 1 2v78l-3 9-1 6-4 5-6 3-14 1h-425l-12-1-8-4-2-2 1-4 10 3 7 1h18l26-1-52-1-7-3v-2l-4-1-3-6v-450l7-8z" fill="#DEEAF6"/>
<path transform="translate(1102,88)" d="m0 0h464l8 8v451l-2 2-2 10-5 4-25 1h-431l-9-2-6-7v-6l-2-2v-94h3l5 6 8 7 19 19 5 14 6 7 16 6 42 42v2h62l-81-81-1-6 2-4 1-16h-2l-5-10-5-3-4-1h-16l-10 1-12-13-12-11-19-19-2-1v-295l5-4z" fill="#DEEAF6"/>
<path transform="translate(1107,592)" d="m0 0h96l5 2 29 29-1 4h-2l-2 4-13 12-6 7-8 7-78 78-5 9v9l5 9 6 5 8 2 10-1 6-4 18-18 8-7 65-65 1-2h2l2-4h2v-2l8-7 66-66 2-1h128l2 3 3-3h100l7 5v2h2l1 2v451l-4 11-6 5-5 1h-449l-8-2-6-4-2-4-3-1v-224l1-7 10-8 13-13 4-5 3-8-1-8-4-8-5-4-8-4-11 2-1-1-1-12 1-156 10-9z" fill="#F5C33F"/>
<path transform="translate(602,88)" d="m0 0h459l8 8 1 2v293l-116-116-7-8-7-7-2-1v-2l-4-2-30-30-14-10-17-8-25-6h-26l-22 5-16 7-11 7-9 7-10 9-9 9-7 8-21 21-7 8-21 21-7 8-20 20-7 8-24 24-4 7v15l4 7 8 5 4 1h8l9-4 38-38 7-8 7-7 4-5 33-33 7-8 16-17 18-18 10-7 15-7 13-3h14l14 3 14 7 11 9 14 14 5 4v2h2l5 5 9 10 44 44 2 1v2h2v2l4 2 7 8 5 4v2h2v2h2l7 8 63 63 2 1v2l4 2 4 4v2l4 2 3 6v88l-3 7-1 2v6l-6 6-6 1h-443l-12-3-3-5v-2l7 1-6-3-5-8-1-15v-63l8-8 8-10 3-10-2-10-5-8-6-3-6-2v-317l6-7z" fill="#FDAC4F"/>
<path transform="translate(604,592)" d="m0 0h79l-1 3-8 7-29 29-5 10v10l7 11 169 169 8 4h13l6-3 10-9 37-37 1-2h2l2-4h2l2-4 8-7 106-106 6-8 2-5v-9l-4-8-9-10-16-16-8-7-6-7 1-1h78l5 2 8 8 1 2v168l-3 5-8 7-10 10-5 10v10l5 8v2l4 2 8 3 8 1 1 2v212l-2 8-1 3-1 5-6 7-6 2h-445l-8-2-5-5v-3l10 3 13 1h430l9-1 6-5-3 2-6 2-52 1-390-1-10-1-8-4-4-13v-218l2-2 30 30 2 1v2l4 2 34 34 8 7 32 32 8 7 16 16 8 7 30 30 8 7 13 13 10 8 11 7 18 6 14 2 12-1 15-4 17-9 11-9 59-59 7-8 47-47 3-7v-12l-4-8-7-5-3-1h-12l-6 3-118 118-7 4-7 2h-11l-11-4-10-8-8-8-8-7-23-23-8-7-36-36-8-7-35-35-8-7-12-12-8-7-34-34-8-7-27-27v-158l5-6z" fill="#FDAC4F"/>
<path transform="translate(346,591)" d="m0 0h41l6 1h41l26-1 3 1v2h-2l-2 6h-2l-2 4-3 2-2 4 8-7 11-11h84l7 4 5 6v2h2v156h-2l2 4v53h-2l1 3v229l-3 5-8 6-4 1-53 1-228-1-21-1-1-1-2-19-1-21-1-3-1-11v-17l10-9 12-11 10-9 7-7 8-7 9-9 8-7 14-13 8-7 13-12 10-10 7-10 8-16 4-17 1-14-3-21-7-17-7-11-11-13-8-7-32-30-10-9-17-16-15-14-13-12-8-8-8-7-15-14-12-11-2-1-4-32v-15h131l4 2v-2z" fill="#F5C33F"/>
<path transform="translate(98,1092)" d="m0 0h109l1 5 1 14 2 13 5 41 1 17 2 9 3 11 4 9 6 10 9 10 12 9 8 4 15 5-1 4h-2l-2 6-5 10-5 13-3 7-1 13v18l1 13 7 20 7 14 10 14 10 10 14 10 8 5 14 5 15 5 25 1 188-1 6-3 4-4v145l-4 6-6 4-156 2h-66l-76-1-156-1-8-3-5-4-1-2v-453z" fill="#DEEAF6"/>
<path transform="translate(215,1090)" d="m0 0 336 1 6 2 7 6 2 3v103 3 41 2 136l1 18v147h-1l-1-142-4 5-5 2-188 1-25-1-14-4-12-5-8-4-14-10-10-9-8-9-10-16-8-20-2-7-1-13v-18l1-13 3-7 5-13 8-16h2l1-4-9-2-11-4-11-8-10-9-8-11-4-7-4-12-2-12-1-2-2-25-5-43-1-3-1-19h-107v-1z" fill="#313130"/>
<path transform="translate(1464,592)" d="m0 0h100l7 5v2h2l1 2v451l-4 11-6 5-5 1h-449l-8-2-6-4-2-4-3-1 1-7 6 5 9 4h309v-11l5-49v-9l-5-5-12-11-15-13-16-15-12-11-14-13-11-9-10-10-8-7-13-13-9-13-7-16-4-17v-15l4-18 5-13 5-9 11-13 11-11 8-7 13-12 15-14 8-7 12-11 10-9 7-7 8-7 14-12 17-16 8-7 10-9 4-4 4-22 1-19z" fill="#30302F"/>
<path transform="translate(602,88)" d="m0 0h459l8 8 1 2v293l-116-116-7-8-7-7-2-1v-2l-4-2-30-30-14-10-17-8-25-6h-26l-22 5-16 7-11 7-9 7-10 9-9 9-7 8-21 21-7 8-21 21-7 8-20 20-7 8-24 24-4 7v15l4 7v2l-6 5-7 8-9 9-2 3-6-1-9-3v-317l6-7z" fill="#DEEAF6"/>
<path transform="translate(1153,1396)" d="m0 0 2 1 2 8 6 8 5 3 15 2h391v139l-2 3-4 2-1 2-3 1-161 1 96 1h55l12-2 5-1-1 4-6 4-3 1-25 1h-260l-171-1-8-4-4-6 1-3 3 3 13 4h62l92-1-160-1-3-1v-2l-5-2-4-4v-155l4-4z" fill="#DEEAF6"/>
<path transform="translate(1093,1252)" d="m0 0h481l1 9-1 113-4 2h-396l-9 2-7 7-3 12-61 1-2-12v-133z" fill="#F88302"/>
<path transform="translate(593,823)" d="m0 0 7 6 24 24 2 1v2l4 2 34 34 8 7 32 32 8 7 16 16 8 7 30 30 8 7 13 13 10 8 11 7 18 6 14 2 12-1 15-4 17-9 11-9 59-59 7-8 47-47 3-7v-12l-4-8-3-3 1-3 9-6 3-3h2v-2l8-7 8-9 8-7 4-4h2v-2l4 1 9 4 8 1 1 2v212l-2 8-1 3-1 5-6 7-6 2h-445l-8-2-5-5v-3l10 3 13 1h430l9-1 6-5-3 2-6 2-52 1-390-1-10-1-8-4-4-13v-218z" fill="#F5C33F"/>
<path transform="translate(99,592)" d="m0 0h57l1 2 1 13 1 2 1 20 1 3 1 17 2 11 5 45 2 29 4 11 5 6 8 4h10l10-6 6-10v-8l-2-20 1-6 7 6 17 16 8 7 16 15 4 4v9l2 10 3 25 2 21 5 54 3 19v6l-12 11-13 12-10 9-7 6h-2l-2-21-4-17-5-7-6-4h-13l-8 4-5 5-3 6v15l2 12 5 41 3 41 2 12 2 14 1 13 1 4v7l-16 1h-88l-10-5-4-8v-446l6-7z" fill="#DEEAF6"/>
<path transform="translate(1119,1091)" d="m0 0h296l150 1 8 7 1 2v104l-1 1h-481l-1-58v-43l2-5 5-5 4-3z" fill="#F5C33F"/>
<path transform="translate(1505,592)" d="m0 0h59l7 5v2h2l1 2v451l-2 4-7 2-1 2h-105l1-19 3-19 2-31 6-59 1-13 1-3 3-41 3-15 1-25 3-16 1-24 2-17 1-3 1-20 2-12 2-29 1-4 2-22 1-18 2-12 2-30 3-12 1-23z" fill="#DEEAF6"/>
<path transform="translate(184,591)" d="m0 0h8l6 2 2-1 2 23 2 13v11l4 2 30 28 10 9 9 9 8 7 17 16 30 28 10 9 7 7 8 7 11 10 11 14 8 16 4 13 2 19-2 16-3 12-8 16-9 12-17 17-8 7-12 11-8 7-33 31-16 15-8 7-5 4v17l1 11 1 3 2 31 1 9 21 1 228 1 53-1 11-4 1 3-4 6-3 3-4 1h-441l-13-2-6-4-3-4 1-3 4 3 12 3 13 1h43l35-1-7-1v-1h16l-2-11-2-20-2-16-1-3-3-41-6-50-1-3v-15l6-10 8-5 3-1h13l9 7 3 5 4 17 1 21 9-7 7-7 8-7 13-12 6-5-1-12-3-23-4-44-2-21-4-31-1-6v-7l-12-12-8-7-5-4v-2l-4-2-7-7-8-7-6-6-1 5 2 20v8l-6 10-9 6-2 1h-10l-8-4-6-7-4-11-3-40-5-42-1-3-1-17-1-3-1-20-1-2v-11l2-4z" fill="#313130"/>
<path transform="translate(252,1091)" d="m0 0h299l6 2 7 6 2 3v103l-1 1-214 1-13 1h-54l-9-4-8-7-5-9-2-4-1-12-2-8v-22h-2l-2-28-1-3z" fill="#F5C33F"/>
<path transform="translate(743,592)" d="m0 0h175l11 12 11 11 8 7 20 20 2 4-16 15-123 123h-3l-7-8-130-130 2-4 47-47z" fill="#868CDC"/>
<path transform="translate(342,1252)" d="m0 0h223l1 1v127h-3l-5-3-8-1-93-1h-72l-28-1-14-2-10-4-13-9-9-10-5-7-6-16v-27l1-1 2-10 5-10 11-12 7-6 10-6z" fill="#F88403"/>
<path transform="translate(1070,1103)" d="m0 0h1l1 58 1 16h3l1-2 1 2v16l3 1 2 14 5 1 1-3h2v-58h1v58h481l1 2 1 29-1 15-481 1v133l1 6v8l-1 1-1 87h-1l-1-84-2 2 1 6-2 5-2-4v-2l-5 2-7-14-1 16-1 9v48l-1-2-4 2-9 1-10-4-5-5-3-8v-11l3-7 15-15 6-3 7-1z" fill="#30302F"/>
<path transform="translate(1070,604)" d="m0 0h1v168l-3 5-8 7-10 10-5 10v10l5 8-1 4-8 7-7 6-7 8-6 6h-2v2l-10 8-4 2-2 2-6-3h-12l-6 3-118 118-7 4-7 2h-11l-11-4-10-8-8-8-8-7-4-6-3-4 3-9 3-3h2v-2l8-8 3-5 3-1v-2l11-8 18-18 3-4h2v-2l8-7 16-15 17-17 8-7 22-22 5-6 8-7 21-21 7-6 5-5 11-12 4-2 2-4 13-12 5-4 5-6 7-6 13-13 8-7 9-9h2v-2h2l2-4h2v-2l13-10 2-3h3v-2h2z" fill="#FC992F"/>
<path transform="translate(688,592)" d="m0 0h55l-6 8-8 7-37 37v4l4 2 132 132v2l5-3 130-130 6-5-4-6-23-23-8-7-14-14-2-4h61l2 4 9 9 8 7 18 18 5 8 1 3v9l-4 8-12 13-105 105-7 6-1 2h-2l-2 4-43 43-6 4-3 1h-13l-8-4-171-171-6-10v-10l5-10 36-36 3 1z" fill="#30302F"/>
<path transform="translate(346,591)" d="m0 0h41l6 1h41l26-1 3 1v2h-2l-2 6h-2l-2 4-3 2-2 4 8-7 11-11h84l7 4 5 6v2h2v156h-2l2 4v53l-3 1-6-5v-2h-2l-22-22-8-7-29-29-8-7-31-31-2-1v-2l-4-2-27-27-6-5-5-6-8-7-14-14-2-1v-2l-4-2-30-30-2-1v-2l-4-2-10-10-7-6 2-1v-2z" fill="#30302F"/>
<path transform="translate(1070,101)" d="m0 0h1v341l-2 2-5-5v-2h-3l-7-8-5-5-1-3h-2v-2h-2v-2h-2v-2h-2v-2l-4-2-4-5-2-1v-2h-2v-2h-2l-6-7-2-1v-2h-2v-2h-2v-2h-2v-2l-4-2-5-4 1 2-4-2-3-3v-2l-4-2v-2l-4-2v-2l-4-2-4-4v-2l-4-2v-2l-4-2-5-5-4-1v-2h-2v-2l-4-2-55-55-1-3h-2l-22-22-10-7-12-6-14-3h-14l-13 3-17 8-11 9-23 23-7 8-16 17-25 25-11 12-15 16-30 30-9 4h-8l-10-4-6-7-1-3v-15l6-9 28-28 7-8 20-20 7-8 21-21 7-8 21-21 7-8 11-11 13-10 16-9 14-5 18-4h26l25 6 17 8 11 8 10 9 25 25 2 1v2l4 2 12 12 7 8 105 105 3 4z" fill="#313131"/>
<path transform="translate(592,768)" d="m0 0 7 5 4 6 6 3 1 3 4 2 9 8 6 5 5 6 5 5 6 5 5 8 4 2 9 8 6 5 4 4v2l4 2 1 4 7 6 7 8 5 4 6 7 14 14 7 6 5 6 8 7 5 4 5 5v2l4 2v2l4 2v2l6 2 10 9 6 5 7 8 11 10 7 6v2l4 2v2l4 1 2 3 4 1 11 8 9 3h11l9-3 8-6 116-116 5-2h12l8 4 6 8 1 3v12l-4 8-52 52-7 8-57 57-13 9-15 7-18 4-15-1-15-4-10-4-14-10-13-12-11-11-8-7-30-30-8-7-12-12-4-3v-2l-4-2-36-36-8-7-30-30-2-1v-2l-4-2-28-28-2 1-1-16v-24z" fill="#30302F"/>
<path transform="translate(1423,432)" d="m0 0h21l19 5 15 8 13 11 10 14 7 16 1 8v26l-1 25-3 11 2 1h-233l4-1 1-3 8-7 91-91 11-9 11-7 13-5z" fill="#303030"/>
<path transform="translate(723,1439)" d="m0 0h20l18 6 14 8 10 9 8 7 19 19 8 7 28 28 8 7 16 16 8 7 11 11h29l7-7 7-8 22-22 7-8 17-17 7-8 11-11 9-6 4-1h11l8 5 4 5 2 4v12l-5 10-17 17-7 8-16 16-6 7-5 5-59 1h-94l-5 1-71 1-44-1-3-2 94-1 29-1-10-10-8-7-11-11-8-7-21-21-6-5-4-5-13-10-11-4h-8l-11 3-9 7-4 5-3 7v26l3 24v9h-43l-2-7-1-13-2-13v-28l2-7 6-15 7-12 11-12 13-9 14-6z" fill="#313130"/>
<path transform="translate(1174,1375)" d="m0 0h149v1h-53v2l7-1 271 1 4 1h22l1 5v31 2 88h-1v-87l-283 1h-108l-15-2-6-4-6-8-1-2v-11l2-7 8-8z" fill="#333334"/>
<path transform="translate(1044,1467)" d="m0 0 5 2 10 3 11-2 1 2v78l-3 9-1 6-4 5-6 3-14 1h-425l-12-1-8-4-2-2 1-4 10 3 7 1h18l26-1-1-2h46l-4-33v-26l4-8 7-8 9-5 8-2h8l11 4 9 7 8 7 9 9v2l4 2 20 20 8 7 11 11 8 7 5 6-30 1-91 1 44 1 71-1 5-1h153l2-4 7-6 7-8 16-16 7-8 12-12 4-9v-12l-5-8 2-5 10-8z" fill="#DDE9F5"/>
<path transform="translate(1107,592)" d="m0 0h96l5 2 29 29-1 4h-2l-2 4-13 12-6 7-8 7-78 78-5 9v9l5 9 1 2-5 3-6 4h-2l-1 3-10-5-11 2-1-1-1-12 1-156 10-9z" fill="#FC992F"/>
<path transform="translate(1450,700)" d="m0 0h2l-2 12-11 111-10 101-1 13-4-2-15-14-11-9-7-7-8-7-7-6v-2l-4-2-12-11-8-7-12-11-7-10-4-11v-17l4-11 7-9 16-16 8-7 7-7 11-9 15-14 8-7 8-8 8-7 10-9 8-7z" fill="#F88302"/>
<path transform="translate(469,592)" d="m0 0h84l7 4 5 6 1 2v155l-7-6-13-12-8-7-35-35-8-7-32-32-8-7-10-10-7-6-5-5 1-5 32-32z" fill="#FDAC4F"/>
<path transform="translate(826,430)" d="m0 0h8l10 5 11 10 7 8 14 14 6 5 7 8 27 27 8 7 7 8 8 7 8 8 7 8 10 9 3 3h-75v-1h12l-5-5-12-13-7-6-7-8-27-27-6-5-5-5-3-4-4 1-66 66-5 6h33v1h-107v-1l13-1 120-120z" fill="#30302F"/>
<path transform="translate(1216,592)" d="m0 0h111l1 3-71 71h-2v2l-4 4h-2l-2 4-14 14h-2l-2 4-52 52-8 7-14 14-9 3-10-1-7-4-5-6-3-6v-9l1-2 5-1 2-5 29-29h2l2-4 11-11 6-5 3-4h2l2-4 5-4h2l2-4h2v-2l23-23 7-8 10-10 1-5-2-5-3-1-6-7-2-1-2-5-4-4-5-3-2-4z" fill="#30302F"/>
<path transform="translate(1092,396)" d="m0 0h2l8 8 3 5 4 2-1-3 4 2 9 9 8 7 8 9 10-1h16l7 3 5 5 2 4v3h2v16l-2 4 1 6 82 82h-58l-6-1-7-8-35-35-16-6-7-8-5-14-20-20-4-3v-2l-4-2-3-3v-2h-3l-1-6v-32z" fill="#13171D"/>
<path transform="translate(829,482)" d="m0 0 4 1 5 5 2 4 4 2v2l4 2 32 32v2l4 2 20 20v2h63l89-1 8-3 3-1v6l-6 6-6 1h-443l-12-3-3-5v-2l9 1 77 1h74l2-4h2l2-4z" fill="#868CDB"/>
<path transform="translate(1092,453)" d="m0 0h3l5 6 8 7 19 19 5 14 6 7 16 6 42 42v2h311l2-1 53-1 1-1h7l1-2v6l-4 5-2 1-25 1h-431l-9-2-6-7v-6l-2-2z" fill="#FDAD4F"/>
<path transform="translate(1428,475)" d="m0 0h10l11 3 9 7 5 6 3 7v22l-3 30-1 5-2 1h-120l2-4 42-42 7-8 15-14 9-8 8-4z" fill="#EAA010"/>
<path transform="translate(1362,940)" d="m0 0 4 2v2l3-1 8 7 16 15 11 9 8 8 9 7 1 2v9l-6 60-10 1h-31l-23-1-4-4 4-44 6-59 2-11z" fill="#EAA010"/>
<path transform="translate(1070,1103)" d="m0 0h1l1 58 1 16h3l1-2 1 2v16l3 1 2 14 5 1 1-3h2v-58h1v60l-1 3v15l-1 7-2 2v5l2 2 1 9 1 1 1 134 1 6v8l-1 1-1 87h-1l-1-84-2 2 1 6-2 5-2-4v-2l-5 2-7-14-1 16-1 9v48l-1-2-4 2-9 1-10-4-5-5-3-8v-11l3-7 15-15 6-3 7-1z" fill="#212225"/>
<path transform="translate(1443,711)" d="m0 0 4 2-4 4-9 7h-2v2h-2v2h-2v2l-8 7 5-4 9-7h5l1 5-2 15-4 10-1 22-6 8v14l1 2-2 4h-2l2 5v8l1 1v5l-1 1v12l-1 9-1 4-1 12-1 2v7h-2l1 8-2 11-2 5-4-2-2 1-2-5-4-2-3-5-7-5-2-9h-2v-2l-2-1h2l-5-10-1-1-1-16 1-10 5 3 2-7-2-5 1-2-1-3-2-1v-5h-2l-1 2-1-13-4 6h-2l-1 3h-2v-13l4-8-1-5 2-1 1-4h2l1-4 8-6 5-6 3-3 1-3-12 11-7 6h-2l-2 4-1-2 7-9 14-11 8-7 6-7 4-6 13-12 7-5h2l2-4z" fill="#E7770C"/>
<path transform="translate(342,1252)" d="m0 0h31l-1 4-6 7-11 21-3 14-1 7v12l3 17 5 13 8 14 10 12v1h-20l-14-2-10-4-13-9-9-10-5-7-6-16v-27l1-1 2-10 5-10 11-12 7-6 10-6z" fill="#DDE9F6"/>
<path transform="translate(252,1091)" d="m0 0h47v13l5 46 3 24 4 16 5 13 2 5h-34l-9-4-8-7-5-9-2-4-1-12-2-8v-22h-2l-2-28-1-3z" fill="#DDE9F5"/>
<path transform="translate(753,358)" d="m0 0h7l7 3 6 7 2 4v9l-6 10-14 14-7 8-11 12-7 8-22 24-9 9-7 8-12 13-6 3h-9l-8-4-4 1 2-4 12-12 4-7 1-3v-13l-1-5 10-9 7-8 10-11 7-8 11-12 7-8 11-12 13-14z" fill="#FCFDFD"/>
<path transform="translate(1359,592)" d="m0 0h100l2 4-1 19-4 22-5 5-12 11-15 14-8 7-11 10-8 7-7 4-4-2v-14l8-78 2-8h-37z" fill="#EAA010"/>
<path transform="translate(265,754)" d="m0 0 6 4 17 17 8 7 8 8 8 7 8 8 7 12 2 7v17l-5 13-11 13-8 7-8 8-11 9-6 4-4-23-5-54-2-21-4-31-1-6z" fill="#F88302"/>
<path transform="translate(1078,610)" d="m0 0h3l1 2 1 11 2 46 4-2 1 4-2 7h-3l-3 14-1 5 1 1 2 17v20l-1 12v19l-1 2 9 3v-9h1l1 8 11-2 11 6 6 8 2 6-1 8-3 6-11 12-9 9-6 4-1 7h-1l-1-13v-4l-3 1h-4l-1 4v12l1 8 1 13-1 8v12l-4 4-2-2-3-18v-23l-1 2-1 38h-1l-1-46h-8l-9-4-5-5-4-7v-10l5-10 17-17 5 1 1 6v13l3-3v-2l7-1h2v-5l-1-1h-5l-1-3 1-6h2l-4-7-1-11-1-17v-23l1-9 1-11 1-5-2-15-1-30v-31h2z" fill="#1E1F21"/>
<path transform="translate(1044,1467)" d="m0 0 5 2 10 3 11-2 1 2v78l-3 8-6 5-2 1-13 1h-67l2-4 7-6 7-8 16-16 7-8 12-12 4-9v-12l-5-8 2-5 10-8z" fill="#FCAB4E"/>
<path transform="translate(443,1293)" d="m0 0 122 1 1 1v33h-128l-7-6-3-5-1-8 4-9 6-5z" fill="#FDFDFD"/>
<path transform="translate(284,951)" d="m0 0h2l10 99v10l2 1h-28l-21-1-1-1-2-19-1-21-1-3-1-11v-17l10-9 12-11 10-9 7-7z" fill="#DEE9F6"/>
<path transform="translate(355,949)" d="m0 0 8 1 6 4 4 7 2 10 7 69 2 21h-35l-2-3-5-49-3-37v-8l2-7 5-5z" fill="#FCFDFD"/>
<path transform="translate(91,1558)" d="m0 0 7 4 4 1 156 1 76 1h66l156-2 4-3 2 1 1 3-4 6-6 3-12 1h-35l-67-1-39-2h-58l-40 2-46 1h-58l-96-1-10-5-3-5v-3h2z" fill="#6F6E98"/>
<path transform="translate(1066,1559)" d="m0 0h2l-1 6-4 5-6 3-14 1h-425l-12-1-8-4-2-2 1-4 10 3 7 1h18l26-1-1-2h46l1-4v4h40v1l-37 1 44 1 71-1 5-1h94l72-1h54l13-1z" fill="#71709E"/>
<path transform="translate(1093,1560)" d="m0 0 7 4 10 3h62l92-1-160-1v-1h460v1l-161 1 96 1h55l12-2 5-1-1 4-6 4-3 1-25 1h-260l-171-1-8-4-4-6z" fill="#7473A0"/>
<path transform="translate(200,592)" d="m0 0h49l1 12 4 29 5 49 1 6-4-1-15-15-8-7-15-14-12-11-2-1-4-32z" fill="#DDE9F5"/>
<path transform="translate(1065,551)" d="m0 0h2v6l-6 6-6 1h-443l-12-3-3-5v-2l9 1 77 1h107l7-1 107-1v2h63l89-1 8-3z" fill="#9C98BB"/>
<path transform="translate(89,1056)" d="m0 0 8 4 9 2 13 1h43l35-1-7-1v-1h51l8-1 21 1 228 1 53-1 11-4 1 3-4 6-3 3-4 1h-441l-13-2-6-4-3-4z" fill="#6E6E9C"/>
<path transform="translate(1570,551)" d="m0 0h1v6l-4 5-2 1-25 1h-431l-9-2-6-7v-3l12 2 13 1h40l37-1v2h311l2-1 53-1 1-1h7z" fill="#9893B7"/>
<path transform="translate(1144,1442)" d="m0 0h20l9 6 4 5 2 7v10l-2 6v7l2 6v10l-3 10-8 7-4 2h-18l-9-3-6-7-2-6v-16l1-1v-10l-1-4v-8l2-10 6-7z" fill="#14181D"/>
<path transform="translate(1151,936)" d="m0 0h8l12 4 6 7 3 7v6l-1 1-17 1-4-3h-9l-1 4h14l10 5 6 9 2 6v11l-3 10-7 8-9 4h-13l-12-6-5-8-2-9v-33l2-10 4-7 7-5z" fill="#13171D"/>
<path transform="translate(1102,593)" d="m0 0h70l-1 6-6 3-3 5-5 5-10 9-13 12h-2v2l-7 5-1 2h-2v2h-2l-1 3-8 7-8 9-2 1-3 6-3 2-1 13h-2v-83z" fill="#FDAC4F"/>
<path transform="translate(1570,1056)" d="m0 0h1l-1 7-6 5-5 1h-449l-8-2-6-4-3-4v-2l5 2 12 3h300l5-1 45-1h104l1-3z" fill="#6D6D97"/>
<path transform="translate(629,937)" d="m0 0h43l1 1v19l-1 1h-27v3h9l11 3 7 8 3 9v16l-4 10-7 6-7 3h-14l-12-6-5-8-1-9 2-1 14-1 3 3 6 1h5v-13l-10 1-2 3-17-1-1-1v-10l3-36z" fill="#14171D"/>
<path transform="translate(1180,485)" d="m0 0 5 3 42 42 7 4 13 13 2 1-1 5-2 2h12l2 2h-58l-6-1-7-8-6-7v-2l-3-2-1-3-3-3v-2h-4v-3l-3-1-4-4-1-4-5-3-2-3 16-8 4-5 2-7v-5z" fill="#30302F"/>
<path transform="translate(121,938)" d="m0 0h19l1 37 6 1v-38h20v39h5v18l-1 1h-5l1 15-5 2h-15l-1-16-25-1z" fill="#161A20"/>
<path transform="translate(1092,396)" d="m0 0h2l8 8 3 5 4 2-1-3 4 2 9 9 8 7 8 9 3 2h-3v3l-3 1-3 11-1 6 16 2 4-4h3l3-3 4 1-2 5-5 4-8-1 1 10-2 11-5 3-10-1-5-5-7-6-3-4-9-9-6-5-4-1v-2h-3l-1-6v-32z" fill="#30302F"/>
<path transform="translate(764,1506)" d="m0 0h5l3 3v2l4 2 20 20 8 7 11 11 8 7 5 6-30 1h-41l-5-1-1-7-1-24 2-10 9-14z" fill="#F5C340"/>
<path transform="translate(645,432)" d="m0 0h9l9 3 8 7 2 6v13l-3 7-9 10-13 13h26l1 18h-41l-9-1 2-18 5-12 6-8 14-13 2-5-10 1-6 4-5-1-7-11-2-4 10-6z" fill="#14181D"/>
<path transform="translate(1066,1055)" d="m0 0h2l-1 5-6 7-6 2h-445l-8-2-5-5v-3l10 3 13 1h430l9-1 6-5z" fill="#6F6F9C"/>
<path transform="translate(813,592)" d="m0 0 5 1-3 10-6 8-7 7-7 8-19 19-8 5-8 1-8-3-5-5-4-8v-7l4-8 21-21 7-6z" fill="#FCFDFD"/>
<path transform="translate(196,794)" d="m0 0h13l8 5 5 9 2 7 2 14v14l-3 6-4 5-6 4-3 1h-12l-8-4-5-6-4-11-1-6v-23l3-6 5-5 4-3z" fill="#313131"/>
<path transform="translate(1450,700)" d="m0 0h2l-1 7h-2l-1 5-8 1-5 5-9 7-11 10-5 8-6 6h-2l-2 4-11 8-6 5-5 7-4 7-9 9-7 12-4 13-1 12 4 13 6 12 5 7v16l2 10-5-2-16-15-9-8-7-10-4-11v-17l4-11 7-9 16-16 8-7 7-7 11-9 15-14 8-7 8-8 8-7 10-9 8-7z" fill="#F5C03E"/>
<path transform="translate(113,1069)" d="m0 0h438v1l-21 1-100 2-14 1 1 2 4-1 3 2-1 3h-7l-12 2-5 2h-19l-3 1-7-1-6 1-3-1-10 1-10-1-4-1-11-1h-28l-7 2-9-1-9-4h-7l-2-1 1-3 8 1 6-2 8-1v-2l-174-1z" fill="#222324"/>
<path transform="translate(1164,1293)" d="m0 0h44l8 4 6 7 1 2v11l-6 9-4 2h-53l-5-3-4-5-2-4v-9l5-8 7-5z" fill="#FDFDFD"/>
<path transform="translate(128,1441)" d="m0 0h42l-1 5-15 33-13 28-3 8-3 2h-20l2-6 9-19 6-14h2l1-6 4-9-18-1-1-1v-19z" fill="#13171D"/>
<path transform="translate(1408,486)" d="m0 0 2 1-5 5-3 11-3 31-1 20 7 1v1h-65l2-4 42-42 7-8 15-14z" fill="#F5C240"/>
<path transform="translate(1261,1206)" d="m0 0h144l167 1-4 3-6 1-1 2-8-1-4 1-7-1-6 1-6-1-4 1-4-1h-9l-11 1-20-1-6-1h-14l-7 1-57 1h-79l-4-1h-24l-6-1h-13l-6-1-5-1-100-1v-1z" fill="#212227"/>
<path transform="translate(89,1056)" d="m0 0 8 4 9 2 13 1h43l35-1-7-1v-1h51l8-1 21 1v1l-16 1 47 1h51l13 1-4 2-2-1v2l-8 1-1 1h-239l-13-2-6-4-3-4z" fill="#72729E"/>
<path transform="translate(618,504)" d="m0 0 6 1 1 3h9l4 2 3 7v11l-6 8-9 10-4 4h-2l-2 4-2 2-12-1-6-3-5-8v-12l10-12 7-9z" fill="#FCFCFC"/>
<path transform="translate(1070,1103)" d="m0 0h1v369l-1-2-4 2-9 1-10-4-5-5-3-8v-11l3-7 15-15 6-3 7-1z" fill="#3D3D45"/>
<path transform="translate(624,1441)" d="m0 0h27l1 11v65l-1 1h-18v-33l-1-24-8-1z" fill="#171B21"/>
<path transform="translate(1368,861)" d="m0 0 3 3v2l5 2 10 8v2l4 2 4 4v2l4 2 8 6 5 5 9 10 4 3v2l5 1-1 22-4-2-15-14-11-9-7-7-8-7-7-6v-2l-4-2-3-4-2-10v-9z" fill="#EAA010"/>
<path transform="translate(1174,1375)" d="m0 0h149v1h-53v2l7-1 271 1 4 1h22l1 4-2 1h-14l-3-1-8 1h-20l-3-1h-12l-5 1-1-1-43-1-100-1h-61l-38-2-6-1h-85l-8 3-4 2-2 7-3 12h-1v-15l7-8 5-3z" fill="#26272C"/>
<path transform="translate(1091,762)" d="m0 0h1l1 8 11-2 11 6 6 8 2 6-1 8-3 6-11 12-9 9-6 4-1 7h-1l-1-13v-33z" fill="#30302F"/>
<path transform="translate(703,1560)" d="m0 0 1 4h40v1l-37 1 44 1 5 3 1 3-36 1h-103l-12-1-8-4-2-2 1-4 10 3 7 1h18l26-1-1-2h46z" fill="#8A87AE"/>
<path transform="translate(595,1053)" d="m0 0 2 3 7 3 10 1 392 1 50-1 7-3 3-2-2 4-5 4-9 1h-436l-11-2-6-2-2-2z" fill="#40404A"/>
<path transform="translate(1094,552)" d="m0 0 12 2 13 1h40l37-1v2h6v1h-10v2l-5 1 3 2 7-1h102l28 1v1l-65 1h-153l-9-2-6-7z" fill="#6F6F9B"/>
<path transform="translate(1066,777)" d="m0 0 5 1v54l-1-2h-8l-9-4-5-5-4-7v-10l5-10z" fill="#30302F"/>
<path transform="translate(897,222)" d="m0 0 5 1 8 7 26 26 2 1v2l4 2 12 12 7 8 96 96v2l-4-1v-2l-4-2v-2l-4-2v-2l-6-2-14-14-2-1v-2l-4-2v-2l-4-2-36-36v-2l-3-1-7-8-6-5v-2l-4-2-4-4v-2l-4-2-5-6-7-6-5-6-7-6-6-7-2-4-4-3-4-2v-3l-2-1-5-4-3-2v-4l-4-2z" fill="#26272E"/>
<path transform="translate(1260,556)" d="m0 0 50 1 89 2 6 1-1 3h-77l-40-1h-90l-8 1-3-2v-2h6v-2z" fill="#9893B7"/>
<path transform="translate(615,788)" d="m0 0 5 1 16 15 31 31 8 7 12 12 8 7 35 35 8 7 36 36 8 7 23 23 8 7 1 3-4-2v-2l-4-1-7-8-11-10-7-6-4-4v-2l-4-2v-2l-4-2-8-7-4-2-6-5-4-4v-2l-4-2-1-3-4-2-7-7-4-3v-2l-3-1-5-5v-2l-4-2-10-10v-2l-4-2-6-7-6-5-5-6-7-6-2-5-6-5v-2l-4-2v-2l-4-2-4-3v-2l-4-2-5-3-3-5v-2l-4-2-5-6-7-6-4-4v-2l-5-2z" fill="#1A1D21"/>
<path transform="translate(342,1570)" d="m0 0h58l39 2 67 1h46l-4 2h-71l-66-1h-60l-49 1h-193l-7-1v-1h154l46-1z" fill="#30302F"/>
<path transform="translate(1457,636)" d="m0 0 1 2-3 5-8 8-4 2-2 4h-2l-2 4-4 2v2h-2v2l-9 7-11 10-8 7-5 4-5 3-3 1-2 4-7 8-7 6-5 5-13 12-3 3-4 1-5 5-4 5-6 5-5 6-8 7-10 9-1 2h-2l-1 3-5 5-4 8h-2l-2 6-2 1 1-6 6-11 11-13 11-11 8-7 13-12 15-14 8-7 12-11 10-9 7-7 8-7 14-12 17-16 8-7 10-9z" fill="#1D1E21"/>
<path transform="translate(1110,1069)" d="m0 0h449v1l-194 1-27 1h-144l-28-1-56-1z" fill="#2D2D2E"/>
<path transform="translate(676,690)" d="m0 0 4 2 5 5v2l4 1 5 5 3 1v4l3-1 5 4 14 14 4 8 4 3v2l4 2 6 7 4 1 4 3v2l4 2 8 8 3 2 1 5 4 2 4 5 4 3 3 5 3 3v2l4 2 2 4 4 2 26 26v2l4 2 2 2 10 1 8-1 1-2 6-1v2l-6 4-3 1h-13l-8-4-140-140z" fill="#1C1E21"/>
<path transform="translate(566,604)" d="m0 0h1v156l-3 1-9-9-8-7-8-8-14-11-5-6-19-19-7-8-11-10-4-1-3-3v-3l-3 1v-2l-4-2-4-4v-2l-4-2-5-4-5-5-1-3-4-2-4-5-3-3v-3l-3-1-2-5h-2v-2l5 2 6 7 8 7 10 10 8 7 32 32 8 7 35 35 8 7 12 11 1 1z" fill="#252728"/>
<path transform="translate(826,430)" d="m0 0h8l10 5 11 10 7 8 14 14 6 5 7 8 27 27 8 7 7 8 8 7 8 8 7 8 5 4 1 5h-6v-2h2l-1-3-2-1v-2h-2l-7-8-5-4-6-7-8-7-4-1-41-41v-2l-4-2-18-18v-3l-2-1-3-1v-2l-4-2-9-9v-2l-5-2-7-1-8 3-6 4-2-1 7-6z" fill="#171A1F"/>
<path transform="translate(593,416)" d="m0 0 8 1 6 5 4 8 1 8-3 10-12 14-3 2-3-5 1-26v-15z" fill="#2F302F"/>
<path transform="translate(1092,1051)" d="m0 0 6 5 9 4h308v2l-5 1h-300l-12-3-5-3-1 2-1-1z" fill="#454553"/>
<path transform="translate(1262,563)" d="m0 0h143v1l-20 1 1 3-4 1-2-1v2l-5-1v2h-8l-3-1h-8l-4-2-1-1-2 4v-3l-3 3h-20l-4-2 1-3 8-1h3l3-1-26 1h-200v-1z" fill="#262627"/>
<path transform="translate(353,1091)" d="m0 0h31l2 2-4 13-7 6-3 1h-8l-7-3-5-6-2-6v-5z" fill="#FAFCFD"/>
<path transform="translate(245,677)" d="m0 0 4 2 8 8 8 7 17 16 30 28 10 9 7 7 8 7 11 10 11 14-1 3h-2l-2-4-3-2 1-2h-2l-3-5-6-5-4-4v-2l-3 1v-2h-2l-3-3-8-7-11-11-8-7-11-10-8-7-5-4v-2l-3-1v-2l-4-2-12-11-5-5-3-2v-2l-4-2 1-4-3-2z" fill="#181B1F"/>
<path transform="translate(1211,592)" d="m0 0h5l-3 2 1 2 5 3 6 6v4l4 2 5 6 4 4 1 5-7 8-7 7-2 3h-2l-2 4-17 17-3 4h-2v2l-16 14-3 4h-2l-1 3-8 7-7 8-8 7-18 18h-2l-2 4-3 5-4 1 2-5 7-8 79-79h2l2-4h2l2-4 8-8 6-5 1-2h2l-1-7-4-2-9-9v-2l-4-2-7-7-2-5z" fill="#1A1D21"/>
<path transform="translate(558,1057)" d="m0 0 2 1-3 4-4 1-262 1-37-1-5-1v-1h249l53-1z" fill="#3B3B41"/>
<path transform="translate(966,346)" d="m0 0 4 2 7 6 7 8 5 4 6 7 5 5 2 1 1-2 7 7 2 1v2h2v2h2v2h2v2l4 2 4 4v2h2v2h2v2l4 2 4 5 2 1v2h2v2h2v2h2v2h2l5 5 4 5v2l4 2v2h3l5 5h2l1 5-3 3-5-4-6-7-2-1v-2l-4-2-68-68v-2h-2v-2h-2v-2l-4-2-8-8z" fill="#202224"/>
<path transform="translate(754,1444)" d="m0 0 9 2 12 7 10 9 8 7 19 19 8 7 28 28v5l2 4-14-12-5-5-1-3h-2l-1-3v-4l-5-3-1-2-4-1-14-11-5-6-3-2v-2l-4-2-12-12-9-7-5-4v-2l-4-1-7-4z" fill="#272931"/>
<path transform="translate(1065,551)" d="m0 0h2v6l-6 6-6 1h-44v-1l9-2v2l3-1-1-1-56-2-1-2 2-1 89-1 8-3z" fill="#6B6B95"/>
<path transform="translate(1065,1055)" d="m0 0v3l-6 5-9 1h-185l-23-1v-1l13-1h151l50-1 7-3z" fill="#40404B"/>
<path transform="translate(1092,1293)" d="m0 0 8 1 8 6 3 5v13l-6 8-3 2h-10z" fill="#FBFCFD"/>
<path transform="translate(1090,1309)" d="m0 0h1l1 80h-3-2l-1 4-3 1-1-6v-29l2-16 2-5 3-1-1-10h2z" fill="#12161C"/>
<path transform="translate(980,865)" d="m0 0 4 1h-2v2h-2l-1 3-17 17h-2l-2 5h-2v2l-6 5h-2l-2 4-6 7-6 5h-2l-2 4-13 13-5 6-8 7-7 7-5 6-6 5h-2l-1 3-8 7-8 8-5 2 6-7 105-105z" fill="#1D1F22"/>
<path transform="translate(903,554)" d="m0 0 1 2-19 2h-32v2l2 1h-8l1-2h-9v2h-13v-1l-13-1h-25l-69-1v-1l71-1 7-1z" fill="#6F6F9C"/>
<path transform="translate(703,1560)" d="m0 0 1 4h40v1l-37 1 44 1v1l-47 1-3 3h-16l-1-2-15-1v3l-4-2-9 1-8-2h-29v-1l13-1 26-1-1-2h46z" fill="#73729F"/>
<path transform="translate(377,1376)" d="m0 0h181l6 4v3l-5-1v-2l-14 1h-24l-14-1-5-1-125-2z" fill="#26272C"/>
<path transform="translate(1572,1558)" d="m0 0 1 4-2 4v-2l-8 3-9 1h-55l-96-1-31-1v-1l195-1 2-4h3z" fill="#313131"/>
<path transform="translate(1079,461)" d="m0 0 2 1 1 5-1 10 1 7 1 21-1 13-1 16h-2l-1-4-1-7-2-10-1-2v-34l3-15z" fill="#1E1F21"/>
<path transform="translate(1093,1557)" d="m0 0 8 5v2l163 1 1 2-99 1h-56l-13-4-3-3-2 2-1-5z" fill="#313130"/>
<path transform="translate(1404,485)" d="m0 0h4l-2 4-9 9-8 7-12 13-29 29-3-1v-5l8-7 7-9 7-5h2l1-3 5-2 7-7 1-4 5-7 5-2 1-3 4-1 1-3z" fill="#24252A"/>
<path transform="translate(1181,483)" d="m0 0 4 1 4 4 5 3 63 63v2h-17v-1l7-2 2-5-5-2-11-12-8-5-42-42-2-1z" fill="#1D1E21"/>
<path transform="translate(89,1056)" d="m0 0 8 4 9 2 13 1 59 1h6v3l-15 1h-68l-8-4-4-5z" fill="#928EB4"/>
<path transform="translate(880,255)" d="m0 0 8 6 7 8 7 6 7 8v2h2l-1 3 4 4v2l4 2v2h3l1 4h2v2l4 2 2 4 3 1 1 3h2v2h2v2h3v3l3 1 2 3 3 1 3 4v2l5 2 3 4v2l4 2 2 4h-2v-2h-2v-2l-4-2-55-55-1-3h-2l-23-23 1-3 2 1z" fill="#25272B"/>
<path transform="translate(1568,1564)" d="m0 0h3l-1 4-6 4-3 1-25 1h-25v-2l-13-1-5-2v-1l61-1 12-2z" fill="#9590B5"/>
<path transform="translate(676,690)" d="m0 0 4 2 5 5v2l4 1 5 5 3 1v4l3-1 5 4 14 14 4 8 4 3v2l4 2 6 7 4 1 4 3v2l4 2 8 8 3 2-1 2-4-2-8-8-5-1-66-66z" fill="#1F2023"/>
<path transform="translate(1329,841)" d="m0 0 2 1 6 12 9 10 8 7 11 10 8 7 3 2v2l4 2 9 9 8 7 10 9 8 7 11 10-1 2-8-7-9-8-10-7v-2h-2v-2l-5-2v-2l-4-2-7-6-4-5-4-2v-2h-3l-4-5v-2l-4-2v-2l-5-2v-2l-4-1-5-5-8-10-3-3-2-1-4-8-2-6z" fill="#1B1E21"/>
<path transform="translate(1174,1375)" d="m0 0h149v1h-53l-1 2h-95l-8 3-4 2-2 7-3 12h-1v-15l7-8 5-3z" fill="#232527"/>
<path transform="translate(1335,855)" d="m0 0 2 2 12 14 3 2v2l4 1v2l5 2 7 8 1 3h3v2l5 2 3 3v2l4 2v2l4 2 6 5 2 1v2h2v2l5 2 11 9-3 2-4-2-13-10-5-5-5-6-3-2v-2l-5-2v-2l-4-2-7-6-2-4-4-2v-2l-6-2v-2l-4-2-6-5-9-11z" fill="#26272C"/>
<path transform="translate(1093,1560)" d="m0 0 7 4 10 3v2h85l-4 2h-20l-9 1-32 1h-25l-8-4-4-6z" fill="#9691B6"/>
<path transform="translate(1337,556)" d="m0 0 122 1 4 2-5 1h-59l-89-2v-1z" fill="#6E6E9C"/>
<path transform="translate(301,1063)" d="m0 0h14l19 1 1 3-21 1h-68l4-2v-2z" fill="#9792B7"/>
<path transform="translate(1443,711)" d="m0 0 4 2-4 4-9 7h-2v2h-2v2h-2v2l-8 7-24 22-11 9-3 3h-2l-2 4-1-2 7-9 14-11 8-7 6-7 4-6 13-12 7-5h2l2-4z" fill="#EAA110"/>
<path transform="translate(987,312)" d="m0 0h2l6 7 6 5 7 8 3 3 3 2 3 3 1-2 39 39v2l-4-1v-2l-4-2v-2l-4-2v-2l-6-2-14-14-2-1v-2l-4-2v-2l-4-2-28-28z" fill="#25262B"/>
<path transform="translate(1341,492)" d="m0 0h3l-1 4-13 13-5 4-4 4-2-1 1 3-4 4h-2l-2 4-4 4-3 2-6 7-3 3h-2l-2 4-3 3h-2v2l-4 2 8 1v1h-12l3-5z" fill="#212326"/>
<path transform="translate(826,575)" d="m0 0 8 1 5-1 10 1v1h11l2 2-3 1 2 3-7 1-1 1h-8l-5-2v-2h-6l-1 3h-2v2l2 1h-7l-3-6-6-1v-2l-10-1v-1z" fill="#1E1F21"/>
<path transform="translate(597,554)" d="m0 0 9 1 77 1 12 1v1l-5 1-35 1h-38l-13-2 2 2h-7z" fill="#6E6E9C"/>
<path transform="translate(319,803)" d="m0 0h2l1 4h2v2h2l4 10 1 4v20l-3 12-7 8-6 5-7 8-14 12-5 4h-3l2-4 11-9 17-17 7-8 5-13v-17l-4-11-5-8z" fill="#1D1F23"/>
<path transform="translate(1197,561)" d="m0 0h102l28 1v1l-65 1h-72l1-2z" fill="#6E6E9C"/>
<path transform="translate(87,1054)" d="m0 0h5l3 3 7 3 102 1v1l-7 1-35 1h-43l-19-2-9-4-1-1-2 2z" fill="#313130"/>
<path transform="translate(742,1061)" d="m0 0h113v1l5 1v1h-82v-2h-36z" fill="#4D4D63"/>
<path transform="translate(1390,959)" d="m0 0 6 2 4 2 1 2 4 2 4 4 2 1v2h2v2h2l4 6 3 3v2l2 1v12l-2 17h-1v-26l-5-5-12-11-13-11z" fill="#1F2022"/>
<path transform="translate(1078,1423)" d="m0 0 3 3-1 9 1 10-1 5v7l-4 1v-2h-2v2h-2v6h-1l-1-31 1-8 2 4 2 3z" fill="#1D1E20"/>
<path transform="translate(1338,1069)" d="m0 0h221v1l-194 1-27 1-3-2z" fill="#2F2F2F"/>
<path transform="translate(1457,636)" d="m0 0 1 2-3 5-8 8-4 2-2 4h-2l-2 4-4 2v2h-2v2l-9 7-9 8-3-1 6-8 17-16 8-7 10-9z" fill="#15191E"/>
<path transform="translate(1463,439)" d="m0 0 6 1 12 7 10 9 10 14 2 4-1 5h-2l-3-5-2-1-1-5-4-2-3-4-4-5-2-5-5-2-2-2-5-2-4-4v-2z" fill="#212329"/>
<path transform="translate(959,280)" d="m0 0 7 6 51 51v3l-4-2-8-8v-2l-4-2v-2l-4-2v-2l-3-1-6-6h-3l-6-6v-2l-3-1-5-5-2-7-10-10z" fill="#1E2023"/>
<path transform="translate(978,595)" d="m0 0 4 2 8 8 8 7 18 18 5 8v11l-3-1-4-11-3-2v-2h-2l-2-5h-2l-2-5-2-3-3-2-6-8-8-7-3-3v-2h-4z" fill="#232428"/>
<path transform="translate(1563,553)" d="m0 0 5 1v3h-2l-1 2h-51l-9-1 4-3 53-1z" fill="#74739C"/>
<path transform="translate(1280,636)" d="m0 0h5l-2 4-26 26h-2v2l-4 4h-2l-2 4-8 8h-2l-1-3 5-1 1-4 3-1 1-3h2l-1-3 5-5 6-7 6-5 4-2 2-5 5-2 2-4z" fill="#242529"/>
<path transform="translate(1449,712)" d="m0 0h2v10l-4 44-2 21-2 18-2 16-2 1v-9z" fill="#1B1D21"/>
<path transform="translate(946,561)" d="m0 0h12l6 1 18 1v1h-199v-1l126-1z" fill="#6E6E9C"/>
<path transform="translate(704,1568)" d="m0 0h50l3 3v2l-16-1-27 1h-28v-1l15-1-5-1v-1z" fill="#9A95B9"/>
<path transform="translate(1e3 377)" d="m0 0 7 6 3 2v2h2v2h2v2h2v2l4 2 4 4v2h2v2h2v2l4 2 4 5 2 1v2h2v2h2v2h2v2h2l5 5 3 6-1 2-2-4-4-2v-2l-4-2-8-8v-2l-4-2-5-4-3-4v-2l-4-1-4-5v-2l-4-2v-2l-4-1v-3l-4-2-3-5z" fill="#25262A"/>
<path transform="translate(615,564)" d="m0 0h86v1l-27 1-4 2-17 2h-13l-7-1 1-3-19-1z" fill="#1F2022"/>
<path transform="translate(615,788)" d="m0 0 5 1 16 15 31 31 8 7 3 4h-3l-6-5v-2l-4-2v-2l-4-2-4-3v-2l-4-2-5-3-3-5v-2l-4-2-5-6-7-6-4-4v-2l-5-2z" fill="#191C20"/>
<path transform="translate(1199,593)" d="m0 0h8l30 30-1 4h-2l-2 4-13 12-6 7-8 7-21 21-2-1 48-48h2l-1-8-3-3v-2l-4-2v-2l-3-1-7-8-7-6-4-1v-2z" fill="#FDAA4B"/>
<path transform="translate(1326,592)" d="m0 0 2 3-37 37h-2l-1-3 2-1 1-4 6-5h3v-2l7-6 3-6 3-4h2l1-4 8-3z" fill="#24252A"/>
<path transform="translate(245,677)" d="m0 0 4 2 12 12-1 3 3 1 12 12 8 7 8 8 8 6 2 4-4-1-17-16-2-1v-2l-3-1v-2l-4-2-12-11-5-5-3-2v-2l-4-2 1-4-3-2z" fill="#1C1E20"/>
<path transform="translate(265,754)" d="m0 0 3 2-1 6 1 3 3 30 5 48 3 33 1 15h-1l-3-19-5-54-2-21-4-31-1-6z" fill="#F9B13F"/>
<path transform="translate(611,561)" d="m0 0h51v1h57v1l-5 1h-102z" fill="#6E6E9C"/>
<path transform="translate(1062,1562)" d="m0 0 2 1-6 4-15 1-52-1-11-1 1-2h66l13-1z" fill="#343435"/>
<path transform="translate(316,1063)" d="m0 0h36l13 1-4 2-2-1v2l-8 1-1 1h-33l1-2 9-1v-1l-11-1z" fill="#7473A0"/>
<path transform="translate(432,632)" d="m0 0 5 2 6 7 8 7 3 4v2l7 6v2l4 2 1 2 3 1 6 7v3h-2v-2l-4-2-4-4v-2l-4-2-5-4-5-5-1-3-4-2-4-5-3-3v-3l-3-1-2-5h-2z" fill="#25262B"/>
<path transform="translate(346,591)" d="m0 0 8 1-4 1v2l-2 1 2 7h2l1 7h-4l-9-9-7-6 2-1v-2z" fill="#24252A"/>
<path transform="translate(1329,755)" d="m0 0 2 1-12 12-8 7-1 2h-2l-1 3-5 5-4 8h-2l-2 6-2 1 1-6 6-11 11-13 11-11 4-2 3 1z" fill="#1E1F22"/>
<path transform="translate(91,1558)" d="m0 0 7 4 4 2h-4v2l20 2 9 1-1 3h-3-24l-7-4-3-5v-3h2z" fill="#8E8AAE"/>
<path transform="translate(591,514)" d="m0 0h1l2 30 5 8 7 3v1l-7-1-2-1 1 5-6-4-4-6-1-6 1-12 2-1z" fill="#313131"/>
<path transform="translate(966,346)" d="m0 0 4 2 7 6 7 8 5 4 6 7 12 12 2 1v3l4 1 7 8 1 3 4 1 2 4h-3l-40-40v-2h-2v-2h-2v-2l-4-2-8-8z" fill="#202124"/>
<path transform="translate(646,477)" d="m0 0h3v2h-2l1 3-2 5 1 3-3 3 3 3 1 2-1 2-6 2h-5l-1-4 2-3 1-8 2-5h2l2-4z" fill="#1E1F21"/>
<path transform="translate(645,982)" d="m0 0h10l1 3v7l-1 3-8 1-5-3-2-4v-3h3z" fill="#F5B836"/>
<path transform="translate(820,1497)" d="m0 0 4 2 24 24v5l2 4-14-12-5-5-1-3h-2l-1-3v-4l-5-3z" fill="#24252A"/>
<path transform="translate(459,1376)" d="m0 0h99l6 4v3l-5-1v-2l-23-2-77-1z" fill="#16191D"/>
<path transform="translate(905,284)" d="m0 0 7 6 2 4 4 2v2h3l1 4h2v2l4 2 2 4 3 1 1 3h2v2h2v2h3v3l3 1 2 3 3 1 3 4v2l5 2 3 4v2l4 2 2 4h-2v-2h-2v-2l-4-2-50-50-3-4z" fill="#1F2124"/>
<path transform="translate(897,222)" d="m0 0 5 1 8 7 25 25 1 4h-2l-4-4-2-3-6-3-3-5-4-3-4-2v-3l-2-1-5-4-3-2v-4l-4-2z" fill="#1A1C20"/>
<path transform="translate(1406,1060)" d="m0 0h9v2l-5 1h-76l1-2z" fill="#343435"/>
<path transform="translate(206,885)" d="m0 0h13l9 7 3 5 2 8v7l-2-4-3-2-2-5v-3l-3-1-5-6-5-3-8-1z" fill="#28292F"/>
<path transform="translate(556,1564)" d="m0 0 3 1-5 2-8 1h-17l-42-1v-2z" fill="#313130"/>
<path transform="translate(595,1559)" d="m0 0 4 1 3 3 4 1 54 1-2 2-26 1h-18l-14-3-3-1-2 2-1-4z" fill="#313130"/>
<path transform="translate(1404,485)" d="m0 0h4l-2 4-9 9-8 7-4 5h-2l-1-5 6-8 5-2 1-3 4-1 1-3z" fill="#212327"/>
<path transform="translate(1232,687)" d="m0 0h2l-1 3h-2l-2 4-24 24h-2l1-5 6-5 2-4h3l1-4 5-5h3l1-4 3-3z" fill="#242529"/>
<path transform="translate(364,622)" d="m0 0 4 1 4 3 2 2 3 1 2 4 4 2 6 7 5 5-4 2-8-7-18-18z" fill="#27282C"/>
<path transform="translate(765,932)" d="m0 0 4 2 16 15 20 20 8 7 1 3-4-2v-2l-4-1-7-8-11-10-7-6-4-4v-2l-4-2v-2l-4-2-4-3z" fill="#181B20"/>
<path transform="translate(980,865)" d="m0 0 4 1h-2v2h-2l-1 3-17 17h-2l-2 5h-2v2l-6 5h-2l-1 3-2-1 2-4 26-26z" fill="#181B20"/>
<path transform="translate(1463,561)" d="m0 0h3 8l3 1 6-1v2h37v1h-115v-1l54-1z" fill="#6E6E9C"/>
<path transform="translate(597,554)" d="m0 0 9 1 56 1v2h-58l2 2h-7z" fill="#4F4F65"/>
<path transform="translate(128,1441)" d="m0 0h40v1l-12 1h-34v17l18 1v1h-19l-1-1v-19z" fill="#65637A"/>
<path transform="translate(1438,823)" d="m0 0h2v11l-5 51-1 6h-1v-19z" fill="#212224"/>
<path transform="translate(1211,592)" d="m0 0h5l-3 2 1 2 5 3 6 6v4l4 2 5 6 4 4 1 5-3 1-1-7-4-2-9-9v-2l-4-2-7-7-2-5z" fill="#1D1F22"/>
<path transform="translate(807,1539)" d="m0 0h2v2l5 2 5 5v2l4 2 4 4 2 5 2 2-5-1-9-9-8-7-4-4v-2z" fill="#242529"/>
<path transform="translate(1090,1258)" d="m0 0h1v26l-1 3-3-1-3-7 1-14 5-1z" fill="#12161C"/>
<path transform="translate(351,783)" d="m0 0 4 1 1 4 4-1 8 16 1 7-3 1-2-6-3-5-2-1-3-7-2-5h-2z" fill="#232428"/>
<path transform="translate(1450,700)" d="m0 0h2l-1 7h-2l-1 5-8 1-5 5-9 7-9 8-2-1 8-8 11-9 7-7 8-7z" fill="#F5AC2D"/>
<path transform="translate(453,652)" d="m0 0 4 2 15 14 23 23h-3l-9-8-4-1-3-3-1-4-2-4-4-2v-2l-4-1-5-6-7-6z" fill="#1F2124"/>
<path transform="translate(676,690)" d="m0 0 4 2 5 5v2l4 1 5 5 3 1v4l4 2 6 7 5 5 2 3h-3l-35-35z" fill="#1E2023"/>
<path transform="translate(923,518)" d="m0 0 7 6 9 8 12 12v2h2v2l3 1v3h-2l-1 2-2-4-5-5-2-5-3-1v-2l-4-2-4-4v-2l-4-2-6-6z" fill="#25262B"/>
<path transform="translate(1108,408)" d="m0 0 4 2 9 9 8 7 8 9 3 2-6-1-14-14-3-1v-2l-5-2-5-6h2z" fill="#21242D"/>
<path transform="translate(1390,959)" d="m0 0 6 2 4 2 1 2 4 2 4 4 2 1v2h2v2h2l1 3-2 1v-2l-4-2-3-2-3 1-13-11z" fill="#242529"/>
<path transform="translate(1229,528)" d="m0 0 4 2 24 24v2h-17v-1l7-2 2-5-5-2-11-12-4-4z" fill="#1E2023"/>
<path transform="translate(754,1444)" d="m0 0 9 2 12 7 3 6 3 5-5-2-6-5-5-4v-2l-4-1-7-4z" fill="#24252A"/>
<path transform="translate(1458,482)" d="m0 0 5 2 1 7 2 1v3h2v26l-2 15h-1v-38l-5-10-3-3z" fill="#222427"/>
<path transform="translate(971,347)" d="m0 0 4 2 7 6 4 4v2l3 1 7 8 5 5-1 4-3-3v-2l-4-2v-2l-4-2v-2l-4-2-4-4v-2l-4-2v-2l-4-2z" fill="#27282C"/>
<path transform="translate(1018,340)" d="m0 0 4 2 35 35v2l-4-1v-2l-4-2v-2l-4-2v-2l-4-2v-3h-2l-6-7-7-6-2-2-2-1v-3l-4-1z" fill="#1F2124"/>
<path transform="translate(1483,455)" d="m0 0h2v2l3 1 4 4 3-1 8 13-1 5h-2l-3-5-2-1-1-5-4-2-3-4-4-5z" fill="#26272D"/>
<path transform="translate(959,280)" d="m0 0 7 6 17 17v4l4 4 1 3-4-2-5-5v-2l-3-1-5-5-2-7-10-10z" fill="#232428"/>
<path transform="translate(855,1061)" d="m0 0h48l-1 2-5 1h-32l-23-1v-1z" fill="#2C2D2F"/>
<path transform="translate(1105,812)" d="m0 0 2 1-2 4-10 9-2 1-1 7h-1l-1-13 1-4 11-1v-2z" fill="#242529"/>
<path transform="translate(1152,984)" d="m0 0 6 1 2 3v5l-4 3h-5l-3-5 1-5z" fill="#F5B936"/>
<path transform="translate(231,664)" d="m0 0 4 2 11 10-1 3 4 2v3l-5-2-7-6-8-8z" fill="#292A32"/>
<path transform="translate(773,782)" d="m0 0 3 1 7 8 4 5 6 5 17 17 3 4-1 2-5-6-8-7-26-26z" fill="#25262B"/>
<path transform="translate(651,1441)" d="m0 0 2 3 1 59 1 7v8l-3-1z" fill="#7B7EBE"/>
<path transform="translate(666,893)" d="m0 0h7l5 5 3 1v3l3 1 1 4h2l-1 2-7-2-13-13z" fill="#24262A"/>
<path transform="translate(1097,455)" d="m0 0 4 2 12 11 3 1 1 5 4 2 7 6 2 2 4 2-7 1-7-8-14-14-4-3v-2l-4-2z" fill="#1B1D21"/>
<path transform="translate(1570,1056)" d="m0 0h1l-1 7-6 5h-15l-1-2h3v-2l15-1-2-5z" fill="#8F8BB2"/>
<path transform="translate(688,909)" d="m0 0 7 6 9 9-1 2v2l-4-1-12-12v-5z" fill="#292B33"/>
<path transform="translate(1300,874)" d="m0 0 5 2v4l3 1v2l5 1 2 4 4 3v2h2l1 3-4 1-13-13-5-7z" fill="#25262A"/>
<path transform="translate(1329,841)" d="m0 0 2 1 6 12 9 10 8 7 2 5-4-1-5-5-8-10-3-3-2-1-4-8-2-6z" fill="#1C1E22"/>
<path transform="translate(267,700)" d="m0 0 7 6 10 9 7 7 8 6 2 4-4-1-17-16-2-1v-2l-3-1v-2l-4-2-5-6z" fill="#1E1F21"/>
<path transform="translate(206,641)" d="m0 0 4 2 12 11 4 5-4 2-7-6v-2l-2-1-4-5-3-2z" fill="#26282D"/>
<path transform="translate(881,476)" d="m0 0 14 12 7 8 9 8v2l4 2-3 1-8-7-24-24z" fill="#1E1F22"/>
<path transform="translate(973,869)" d="m0 0h2l-2 4-31 31h-2l2-4z" fill="#FC9F37"/>
<path transform="translate(1350,733)" d="m0 0 2 1-4 6-5 4-6 7-4 4-4 1-1 2h-3l2-4 16-15z" fill="#1E1F21"/>
<path transform="translate(686,306)" d="m0 0 2 1v3l-11 11-7 8-6 2 6-7h2l1-5z" fill="#212325"/>
<path transform="translate(1157,512)" d="m0 0 3 1 1 2 4 2v4l4 2 3 3v3h4l1 4 3 1 1 3 4 4-4-1-22-22z" fill="#1D1F22"/>
<path transform="translate(1033,407)" d="m0 0 7 6v2h2v2h2v2h2v2h2l5 5 3 6-1 2-2-4-4-2v-2l-4-2-8-8v-2l-4-2-2-3h2z" fill="#27272C"/>
<path transform="translate(1079,912)" d="m0 0h2l1 9v14l-1 5v5l-3 1v-30z" fill="#1E1F21"/>
<path transform="translate(804,1483)" d="m0 0 11 7 6 7-3 3-13-11-3-3z" fill="#282A31"/>
<path transform="translate(782,1518)" d="m0 0 4 1v2l3 1 5 5h3v2l4 2v5l4-1 1 3-4 1-15-14-5-5z" fill="#27282B"/>
<path transform="translate(891,1011)" d="m0 0h3l-2 4-13 9-6 1 1-4 4-2 1-2 10-5 2 1z" fill="#25262A"/>
<path transform="translate(320,911)" d="m0 0h6l-2 4-10 9-5 4h-2l3-9h2l2-3h2l1-3h3z" fill="#242529"/>
<path transform="translate(591,780)" d="m0 0h1v34l1 7-1 7h-1l-1-8-2-2v-5l-2-4 3-7 1-18z" fill="#1E1F21"/>
<path transform="translate(898,775)" d="m0 0v3l-5 6h-2l-2 4-17 17-3-1 2-1v-2h2v-2h2v-2h2v-2l4-4h2v-2h2v-2h2v-2h2l2-4h2v-2h2v-2z" fill="#1D1F23"/>
<path transform="translate(522,773)" d="m0 0 5 2v2l4 2v2h2v2l4 2 1 4-3 1-10-9-4-5z" fill="#2D2E37"/>
<path transform="translate(1066,1559)" d="m0 0h2l-1 6-4 5-6 3h-13v-1l11-2v-2l8-5z" fill="#8E8BAE"/>
<path transform="translate(655,485)" d="m0 0 10 4h9l4-1-3 11h-1v-8h-26l2-4z" fill="#F0B94B"/>
<path transform="translate(742,966)" d="m0 0h3l2 4h2l2 3 4 3 2-1 4 4 1 7 3 1 1 3h2v2l-4-2-22-22z" fill="#232528"/>
<path transform="translate(718,889)" d="m0 0h2l13 13 6 5 5 5v2h2l-1 3-3-2v-2l-4-2-7-7-4-3v-2l-3-1-5-5z" fill="#202124"/>
<path transform="translate(1027,1480)" d="m0 0 4 2 5 8v12l-2 4-2-1v-12l-2-4v-5l-3-1z" fill="#222328"/>
<path transform="translate(1306,612)" d="m0 0 2 3-17 17h-2l-1-3 2-1 1-4 6-5h3v-2z" fill="#242529"/>
<path transform="translate(265,754)" d="m0 0 3 2-1 6 1 3 3 30 1 7v10h-1l-4-29-2-17-1-6z" fill="#FAB040"/>
<path transform="translate(1298,537)" d="m0 0 2 2-4 4h-2l-2 4-3 3h-2v2l-4 2 8 1v1h-12l3-5 13-13z" fill="#202125"/>
<path transform="translate(597,1059)" d="m0 0 4 1v3l25 2-1 2-10 1h-11l-5-3-2-3z" fill="#938FB4"/>
<path transform="translate(1262,656)" d="m0 0h3l-2 4-6 6h-2v2l-4 4h-2l-2 4-8 8h-2l-1-3 5-1 1-4 3-1 1-3 7-6 4-4h2l2-5z" fill="#1E2023"/>
<path transform="translate(1423,432)" d="m0 0h21l15 4 1 2-9-2-13-1h-22l2-2z" fill="#1E2023"/>
<path transform="translate(611,561)" d="m0 0h32v2l-3 1h-28z" fill="#7574A1"/>
<path transform="translate(591,514)" d="m0 0h1l1 15v15l-3 1-2-2v-12l2-1z" fill="#35353D"/>
<path transform="translate(1314,519)" d="m0 0 3 1-1 3h-2l-2 4-4 4-3 2-4 5h-5l6-7z" fill="#222327"/>
<path transform="translate(931,741)" d="m0 0 2 1-2 4-19 19h-2l3-6h2v-2h2v-2h2v-2h2l2-4h2v-2h2l-1-4z" fill="#1E2023"/>
<path transform="translate(1199,593)" d="m0 0h8l26 26 2 1v2l-4-1-3-3v-2l-4-2v-2l-3-1-7-8-7-6-4-1v-2z" fill="#FCAB4E"/>
<path transform="translate(947,323)" d="m0 0h2v2l4 2 12 12v2h2v2h2l-1 4-10-10-1-3-5-2-5-8z" fill="#28292D"/>
<path transform="translate(1396,912)" d="m0 0 5 1 16 15 8 7v3l-8-7-9-8-10-7v-2h-2z" fill="#1C1F22"/>
<path transform="translate(560,1560)" d="m0 0 2 1 1 3-4 6-6 3h-13v-2l9-1 9-3v-2l-2-2z" fill="#928FB4"/>
<path transform="translate(1150,1462)" d="m0 0h7l3 2-1 5-1 1h-7l-3-2 1-5z" fill="#E2E2E8"/>
<path transform="translate(1449,712)" d="m0 0h2v10l-3 31-2-3 1-17z" fill="#222325"/>
<path transform="translate(558,1057)" d="m0 0 2 1-3 4-4 1h-31l1-2 28-1z" fill="#333334"/>
<path transform="translate(748,918)" d="m0 0 7 2 11 11-2 3-4-3-5-3-6-7-2-2z" fill="#1B1D20"/>
<path transform="translate(308,872)" d="m0 0 1 3-9 8-8 7-5 2v-3l14-12 6-4z" fill="#1A1C20"/>
<path transform="translate(1353,872)" d="m0 0 4 2 14 12 4 4v2l-6-1-4-5v-2l-4-2v-2l-5-2z" fill="#191C20"/>
<path transform="translate(327,852)" d="m0 0 1 3-7 8-6 5-5 6h-3l-2 2v-3l10-9 5-6 5-3z" fill="#1D1F23"/>
<path transform="translate(1362,722)" d="m0 0 5 1-14 14-4-1 4-6z" fill="#1E1F22"/>
<path transform="translate(1065,551)" d="m0 0h2v6l-6 6h-25v-1l16-1 1-2h9l-1-4h4z" fill="#938FB4"/>
<path transform="translate(1019,344)" d="m0 0h3l2 3 7 6v2l4 2v2l4 2v2l2 1-2 2-14-14-2-1v-2l-4-2z" fill="#26272C"/>
<path transform="translate(1148,1492)" d="m0 0h11l1 1v5l-1 1h-8l-3-2z" fill="#E5E7F0"/>
<path transform="translate(1149,958)" d="m0 0h9l4 3 6 2-1 3-5-2-14-1z" fill="#F7B93E"/>
<path transform="translate(1414,675)" d="m0 0m-1 1m-1 1m-2 1 2 1v3l-5 5-9 8-3-1 8-10z" fill="#1D1F21"/>
<path transform="translate(822,200)" d="m0 0h26l7 2v1h-39v-2z" fill="#2F313B"/>
<path transform="translate(1197,496)" d="m0 0 4 2 25 25-3 1-2-4-4-2v-2l-4-2-4-4v-2l-4-2v-2l-4-2v-2l-4-2z" fill="#16191E"/>
<path transform="translate(1391,964)" d="m0 0 6 4 13 12 11 9-1 4v-3l-5-2-13-12-7-7-4-3z" fill="#F7B335"/>
<path transform="translate(145,944)" d="m0 0h1v31h-3v-19z" fill="#FEFEFE"/>
<path transform="translate(1057,434)" d="m0 0 7 3 5 5h2l1 5-3 3-5-4-4-5-3-5z" fill="#232427"/>
<path transform="translate(1093,1057)" d="m0 0 5 2 9 4 6 1-4 2-7 1-6-4-3-4z" fill="#9692B6"/>
<path transform="translate(1398,689)" d="m0 0 2 1-8 9-5 3-12 12h-2l-1 3-2-1 7-8 10-9 7-7z" fill="#171A1F"/>
<path transform="translate(1149,481)" d="m0 0 4 1 5 2 1 4-2 2h-7l-2-2v-6z" fill="#26272C"/>
<path transform="translate(1156,453)" d="m0 0 4 1-2 5-5 4-8-1-1 3-1-4 3-1 4-4h3z" fill="#313139"/>
<path transform="translate(713,278)" d="m0 0h5l-2 1-2 4h-2l-2 4h-2v3l-4 1v3l-5-1 6-7z" fill="#252629"/>
<path transform="translate(620,794)" d="m0 0 5 2 5 6 7 6 6 7 5 5-3 1-4-4v-2h-2l-5-5-7-8-2-1v-2h-2v-2h-2z" fill="#26272C"/>
<path transform="translate(806,969)" d="m0 0 4 2 7 7 5 2v2h3l3 3 11 4v1h-7l-10-5-12-11z" fill="#FDA847"/>
<path transform="translate(1129,1457)" d="m0 0h1v14l1 4v10l-1 1-1 16h-1l-1-5v-10l2-5-1-6v-15z" fill="#F5AC32"/>
<path transform="translate(833,1061)" d="m0 0h22v1l5 1v1h-34l1-2z" fill="#36363B"/>
<path transform="translate(699,709)" d="m0 0 5 3 4 5 8 7 5 6-2 2-13-13-7-8z" fill="#26272C"/>
<path transform="translate(1165,1377)" d="m0 0 2 1-2 4-3 1-2 7-3 12h-1v-15l7-8z" fill="#1E1F23"/>
<path transform="translate(1066,1055)" d="m0 0h2l-1 5-6 7-2 1h-9l2-2h2l2-3 6-3z" fill="#938FB4"/>
<path transform="translate(944,901)" d="m0 0 2 1-2 4-4 5-6 5-5 3-3 3-2-1z" fill="#202224"/>
<path transform="translate(602,557)" d="m0 0 9 1 11 1 1 2-6 1v1h-11l-6-2v-2h4z" fill="#9692B6"/>
<path transform="translate(592,443)" d="m0 0h1v10h3l3 5-2 4-3 2-3-5z" fill="#1E1F22"/>
<path transform="translate(880,1555)" d="m0 0 4 2 3 3-1 4h-15v-1l6-1z" fill="#25262B"/>
<path transform="translate(539,736)" d="m0 0 4 2 20 18 2 2-1 3-9-9-8-7-8-8z" fill="#1B1D21"/>
<path transform="translate(1352,816)" d="m0 0h1v10l4 13 4 8-1 3v-2h-3l-6-17v-12z" fill="#FDA440"/>
<path transform="translate(1463,439)" d="m0 0 6 1 12 7-4 2 2 1-4-1-6-3-4-4v-2z" fill="#22242A"/>
<path transform="translate(888,215)" d="m0 0 5 1 7 5-2 2 3 2-1 3-13-9z" fill="#24262B"/>
<path transform="translate(669,1569)" d="m0 0h16l1 4h-18z" fill="#9793B7"/>
<path transform="translate(988,1556)" d="m0 0 2 1-2 3 1 1 16 2v1l-25 1 2-4z" fill="#F2BE42"/>
<path transform="translate(967,556)" d="m0 0h27l-2 3h-26l-1-2z" fill="#6E6E9C"/>
<path transform="translate(1438,823)" d="m0 0h2v11l-2 22-2-3v-10z" fill="#1E2023"/>
<path transform="translate(542,793)" d="m0 0 10 5 1 1v6l-4-1-8-8z" fill="#222428"/>
<path transform="translate(364,622)" d="m0 0 4 1 4 3 2 2 3 1 2 7h-3l-12-12z" fill="#26272A"/>
<path transform="translate(905,284)" d="m0 0 7 6 2 4 4 2v2h3l1 4h2v2l4 2v3l-7-6-13-13-3-4z" fill="#1D1F22"/>
<path transform="translate(1450,700)" d="m0 0h2l-1 7h-2l-1 5h-8l4-6z" fill="#F5B13C"/>
<path transform="translate(658,335)" d="m0 0 2 1v3l-4 2-5 6-8 8-3-1 6-7z" fill="#212225"/>
<path transform="translate(800,1064)" d="m0 0h28v2l-6 1h-12l-3-1-4 1-3-1z" fill="#9A95B9"/>
<path transform="translate(1457,636)" d="m0 0 1 2-3 5-8 8-4 2-2 4v-3l8-10 6-7z" fill="#1A1C20"/>
<path transform="translate(966,346)" d="m0 0 4 2 7 6 7 8 4 4-1 3-3-3v-2h-2v-2h-2v-2l-4-2-8-8z" fill="#1C1F22"/>
<path transform="translate(1420,1018)" d="m0 0h1v17l-2 13-2 1v-9l2-18z" fill="#1F2124"/>
<path transform="translate(760,930)" d="m0 0 7 6 6 4 5 6 4 4h-3l-8-7-5-5-7-6z" fill="#26272B"/>
<path transform="translate(676,690)" d="m0 0 4 2 5 5v2l4 1 5 5 3 1v2l-4 1-17-17z" fill="#232528"/>
<path transform="translate(739,749)" d="m0 0 6 4v2l4 2 8 8 3 2-1 2-4-2-8-8-6-5v-2h-2z" fill="#25262B"/>
<path transform="translate(1e3 377)" d="m0 0 7 6 3 2v2h2v2h2v2h2l-1 3-4-2v-2l-4-1v-3l-4-2-3-5z" fill="#26272B"/>
<path transform="translate(216,800)" d="m0 0 5 5 2 6v7l-2-3-3-5-4-6v-3z" fill="#222428"/>
<path transform="translate(397,592)" d="m0 0h10l-1 4-3 3-5-1-2-2z" fill="#D6DDEB"/>
<path transform="translate(858,455)" d="m0 0 5 1 7 8 9 9-2 2-19-19z" fill="#222327"/>
<path transform="translate(903,1061)" d="m0 0h22l-4 3h-16l-3-2z" fill="#414250"/>
<path transform="translate(478,676)" d="m0 0 4 2 13 13h-3l-9-8-4-1-3-3z" fill="#232428"/>
<path transform="translate(1213,651)" d="m0 0 2 1-13 13-3 4h-2v2l-8 7v-3z" fill="#1E1F21"/>
<path transform="translate(1018,1520)" d="m0 0h3l-2 4-12 13h-2v-3h2v-2h2v-2h2l1-3h2v-4h2v-2z" fill="#222427"/>
<path transform="translate(127,1489)" d="m0 0 1 4-5 12-3 9-5 3 2-6 9-19z" fill="#44434E"/>
<path transform="translate(1353,925)" d="m0 0 4 1 7 6 1 5-4-1-8-7z" fill="#252629"/>
<path transform="translate(1441,793)" d="m0 0h1l1 12-2 16-2 1v-9z" fill="#202224"/>
<path transform="translate(1491,713)" d="m0 0h1v20l-2 7h-1v-20z" fill="#272930"/>
<path transform="translate(1326,592)" d="m0 0 2 3-11 11h-2v-2h2l-1-4 3-4 5-2z" fill="#1F2023"/>
<path transform="translate(1103,459)" d="m0 0 4 1 8 7h2l2 5h2l2 4 4 4h-3l-7-6-3-4-9-9z" fill="#26272C"/>
<path transform="translate(335,764)" d="m0 0h2l4 4v2l4 2v2l4 2 1 4h2l-1 3-5-4-7-9-4-4z" fill="#25262B"/>
<path transform="translate(1046,426)" d="m0 0h3l6 7-1-4 3 2v2l4 2-1 2h-1v3l-3-2v-2l-4-2-6-6z" fill="#1B1E21"/>
<path transform="translate(959,280)" d="m0 0 7 6 15 15v3l-4-2-2-4-2-1v-2h-2l-4-5-8-8z" fill="#15181D"/>
<path transform="translate(788,956)" d="m0 0 14 12v2l2 1-2 2v-2h-2v-2h-3l-6-7-3-3z" fill="#26272C"/>
<path transform="translate(1249,550)" d="m0 0 5 1 3 3v2h-17v-1l7-2z" fill="#27282C"/>
<path transform="translate(625,546)" d="m0 0v3l-1 5 13 1v1h-21l4-6z" fill="#F5C440"/>
<path transform="translate(780,268)" d="m0 0v3l-16 16-3 4h-2l2-4 6-7 4-4h2v-2h2v-2h2v-2z" fill="#16191E"/>
<path transform="translate(1041,364)" d="m0 0 5 2 11 11v2l-4-1v-2l-4-2v-2l-4-2v-2l-4-2z" fill="#212327"/>
<path transform="translate(562,1056)" d="m0 0 1 3-4 6-4 2-4-2v-2l7-3z" fill="#918DB3"/>
<path transform="translate(705,876)" d="m0 0 4 2 2 4 4 2v2l4 2v3l-4-2-10-10z" fill="#1F2023"/>
<path transform="translate(552,1376)" d="m0 0h6l6 4v3l-5-1v-2l-14-1v-1l7-1z" fill="#1E2024"/>
<path transform="translate(1369,944)" d="m0 0 4 2 9 9 8 7 1 2-5-2v-2l-4-2-5-4-4-4v-2l-4-2z" fill="#F7AD2E"/>
<path transform="translate(1426,926)" d="m0 0h1l1 11-4-2-6-7h8z" fill="#F5BB3A"/>
<path transform="translate(677,848)" d="m0 0 4 2 6 7 6 5 1 3h-3l-5-5-6-7-3-2z" fill="#24252A"/>
<path transform="translate(330,839)" d="m0 0 1 4-3 9-5 6-2-1 5-10 3-7z" fill="#181B1F"/>
<path transform="translate(944,541)" d="m0 0 6 2 1 3h2v2l3 1v3h-2l-1 2-2-4-5-5z" fill="#26272C"/>
<path transform="translate(1096,397)" d="m0 0 5 2 8 8v4l-5-2-1-4-2-1-4-4z" fill="#191B1F"/>
<path transform="translate(789,1010)" d="m0 0 6 1 3 5 2 1v3l-4-1-7-6z" fill="#26272B"/>
<path transform="translate(794,960)" d="m0 0 4 2 7 7 8 7 1 3-4-2v-2l-4-1-7-8-5-4z" fill="#1A1C20"/>
<path transform="translate(1232,687)" d="m0 0h2l-1 3h-2l-2 4-4 4h-2l2-7 3-3z" fill="#222327"/>
<path transform="translate(1090,1226)" d="m0 0h1v25h-1l-1-9-2-2v-5l2-4z" fill="#26272C"/>
<path transform="translate(303,790)" d="m0 0 5 3 12 12 2 3-1 3-4-5-6-7-2-1v-2l-4-2z" fill="#F7921C"/>
<path transform="translate(1378,457)" d="m0 0v3l-5 5v-3zm-8 8h2l-2 4-5 5-5 2 6-7z" fill="#1F2126"/>
<path transform="translate(1092,1328)" d="m0 0h10l-2 2-5 1-1 2-1 22h-1z" fill="#FBA335"/>
<path transform="translate(1300,874)" d="m0 0 5 2v4l3 1 1 5 3-1v4l-4-2-8-10z" fill="#1E2023"/>
<path transform="translate(1358,780)" d="m0 0h2l-1 4-10 9-3 1 2-5 3-3 1-2 4-1z" fill="#212326"/>
<path transform="translate(1264,652)" d="m0 0m-1 1m-1 1m-1 1 1 2-3 5-5 2-2 4-3 1-1 2v-3l6-7z" fill="#26272C"/>
<path transform="translate(203,886)" d="m0 0 3 1v2l-5 2-4 4h-2v2h-2l1-5z" fill="#2C2D33"/>
<path transform="translate(1007,560)" d="m0 0h15l2 2-4 1v-2l-4 2h-10l-3-2z" fill="#9590B5"/>
<path transform="translate(671,321)" d="m0 0 2 1-5 5-2 3 2-1-2 4h-2l-1 3-4-1 4-6z" fill="#313341"/>
<path transform="translate(1422,1070)" d="m0 0h24l-3 2-14 1-7-1z" fill="#1E1F21"/>
<path transform="translate(1446,750)" d="m0 0h1v16l-2 6h-1v-10l1-10z" fill="#1E2023"/>
<path transform="translate(256,688)" d="m0 0 4 1 1 2-1 3 3 1 4 6-4-1-6-5-2-4 2-1z" fill="#24252A"/>
<path transform="translate(978,595)" d="m0 0 4 2 8 8 6 5-2 2-8-8-5-4v-2h-4z" fill="#1E2023"/>
<path transform="translate(848,1524)" d="m0 0 4 2 5 6v2l-5-2-5-4z" fill="#2F303D"/>
<path transform="translate(432,632)" d="m0 0 5 2 6 7 5 4-1 3-8-8-3-1-2-5h-2z" fill="#1D1F23"/>
<path transform="translate(1410,564)" d="m0 0h9l2 3-2 1h-11l-1-3z" fill="#1E1F21"/>
<path transform="translate(782,1518)" d="m0 0 4 1v2l3 1 4 6 5 4v2l-4-2-12-12z" fill="#232428"/>
<path transform="translate(1228,531)" d="m0 0 5 2 9 9 4 5-4-1-14-14z" fill="#26272B"/>
<path transform="translate(541,739)" d="m0 0 7 6 4 4-1 2-4-2-7-7z" fill="#27272C"/>
<path transform="translate(798,1476)" d="m0 0 4 2 8 8h-3l-3-2h-4v-3l-1-1-2-3z" fill="#1E2023"/>
<path transform="translate(788,1471)" d="m0 0 5 1 2 4h2l5 5-4 1-3-2v-2l-4-2-4-4z" fill="#25262B"/>
<path transform="translate(718,889)" d="m0 0h2l12 12-4 1-1-3-3-1-5-5z" fill="#232428"/>
<path transform="translate(251,739)" d="m0 0 4 2 10 8v2l2 1 1 3-4-2-13-13z" fill="#212325"/>
<path transform="translate(287,719)" d="m0 0 8 6 5 5 1 2-4-1-11-10z" fill="#222326"/>
<path transform="translate(971,564)" d="m0 0h17v3l-6 1-5-1v-1l-6-1z" fill="#1E1F22"/>
<path transform="translate(686,308)" d="m0 0 3 1-14 14-1-2 7-8z" fill="#27282C"/>
<path transform="translate(1338,744)" d="m0 0 2 1-7 7-1 3-3 1-1 2h-3l2-4z" fill="#171A1F"/>
<path transform="translate(746,246)" d="m0 0m-1 1m-1 1m-1 1m-1 1m-1 1m-1 1m-1 1m-1 1m-1 1m-1 1m-1 1m-1 1m-1 1m-1 1m-1 1m-1 1m-1 1m-1 1m-3 1 3 1-8 7-2-1z" fill="#383842"/>
<path transform="translate(1322,897)" d="m0 0h2l3 5 7 7 3 1-1 3-7-6-8-7z" fill="#1F2124"/>
<path transform="translate(713,727)" d="m0 0 4 2 10 9-3 2-11-11z" fill="#212225"/>
<path transform="translate(790,556)" d="m0 0h14l-2 2-4 1h-10l-1-2z" fill="#5B5B7A"/>
<path transform="translate(793,552)" d="m0 0h8l5 2v1l-13 1-2-2z" fill="#E0EAF6"/>
<path transform="translate(588,543)" d="m0 0 6 1-1 4 1 4h-4l-2-5-1-3z" fill="#26272C"/>
<path transform="translate(98,1564)" d="m0 0h8l1 2 16 1v1l-6 1-17-2-2-1z" fill="#696993"/>
<path transform="translate(694,864)" d="m0 0 7 6 4 6h-3l-7-8-2-1z" fill="#202124"/>
<path transform="translate(597,554)" d="m0 0 9 1 4 1v2h-6l2 2h-7z" fill="#7474A0"/>
<path transform="translate(928,308)" d="m0 0h2v2l3 1 1 3h2v2h2v2h3v3l2 1h-3l-12-12z" fill="#222326"/>
<path transform="translate(1406,970)" d="m0 0 5 2v2h2v2h2l1 3-2 1v-2l-4-2-3-2-3 1-1-2h2z" fill="#26272B"/>
<path transform="translate(931,916)" d="m0 0v3l-8 8-5 3-2-1 7-7 5-3z" fill="#1D1F22"/>
<path transform="translate(1016,637)" d="m0 0h2v3h2l1 9-3-1-3-7z" fill="#25262B"/>
<path transform="translate(1173,529)" d="m0 0h3l1 4 3 1 1 3 4 4-4-1-8-8z" fill="#202225"/>
<path transform="translate(1181,483)" d="m0 0 4 1 4 4 3 5 1 2-4-2-8-7z" fill="#202123"/>
<path transform="translate(1057,434)" d="m0 0 7 3 2 5v3l-4-2-5-7z" fill="#1F2125"/>
<path transform="translate(883,1061)" d="m0 0h20l-1 2-5 1-14-2z" fill="#303032"/>
<path transform="translate(285,891)" d="m0 0 4 1-3 4h-2v2l-3 1-2-2 4-5z" fill="#292A2C"/>
<path transform="translate(1008,873)" d="m0 0h2l1 2v12l-2-1-2-10z" fill="#24262A"/>
<path transform="translate(1327,835)" d="m0 0 1 3h2l-1 5 5 10-1 3-3-5-3-7z" fill="#26272C"/>
<path transform="translate(879,794)" d="m0 0h2l-2 4-7 7-3-1 2-1v-2h2v-2h2v-2h2v-2z" fill="#1F2124"/>
<path transform="translate(231,664)" d="m0 0 4 2 4 5-4-2v1l2 3-4-1-4-4z" fill="#222427"/>
<path transform="translate(669,1471)" d="m0 0 2 1-2 3-1 5-3 3-2 4-1-4 6-11z" fill="#27282C"/>
<path transform="translate(1093,1057)" d="m0 0 5 2 6 2-1 3h-6l-4-5z" fill="#73729F"/>
<path transform="translate(1017,855)" d="m0 0 2 1-9 9-5 3v-4l9-6z" fill="#FCAF4E"/>
<path transform="translate(1329,841)" d="m0 0 2 1 7 14h-4l-4-8-2-6z" fill="#1D1F22"/>
<path transform="translate(525,726)" d="m0 0 7 4 7 8-1 2-8-8-5-4z" fill="#26272C"/>
<path transform="translate(1199,719)" d="m0 0 1 4-7 7h-2v-3h2l2-4z" fill="#242529"/>
<path transform="translate(442,698)" d="m0 0h3l1 4h3l1 4h3l1 4-4-2-8-8z" fill="#222327"/>
<path transform="translate(657,477)" d="m0 0 3 1-6 7-2 1-4-2h2v-2l6-2z" fill="#25262D"/>
<path transform="translate(898,949)" d="m0 0v3l-6 7-6 5-2-1z" fill="#13171C"/>
<path transform="translate(1125,764)" d="m0 0 1 2-3 5-5 2h-3v-2l9-6z" fill="#FEAD50"/>
<path transform="translate(661,488)" d="m0 0 4 1h9l4-1-3 11h-1v-8h-10l-3-1z" fill="#F6C141"/>
<path transform="translate(592,443)" d="m0 0h1v10h3l3 5-1 2-3-1v-2l-2-1-1-1z" fill="#25262B"/>
<path transform="translate(755,293)" d="m0 0h2l-2 4-8 9h-2v-3l5-5 3-1v-2h2z" fill="#1C1F22"/>
<path transform="translate(364,801)" d="m0 0h3l2 5v4l-3 1-2-6-2-3z" fill="#25262A"/>
<path transform="translate(995,611)" d="m0 0 4 2 6 6-1 2-6-2-2-4z" fill="#212326"/>
<path transform="translate(457,600)" d="m0 0h3l-2 4-6 6h-2l2-6 4-2z" fill="#1E2022"/>
<path transform="translate(913,510)" d="m0 0 5 1 5 6-1 3-9-9z" fill="#1F2023"/>
<path transform="translate(1163,508)" d="m0 0 2 1v2h-3v2h2l1 4-5-2-3-4z" fill="#26272C"/>
<path transform="translate(897,222)" d="m0 0 5 1 5 5-4 2-2-1v-4l-4-2z" fill="#1E2025"/>
<path transform="translate(653,1503)" d="m0 0h1l1 7v8l-3-1v-10z" fill="#878DDD"/>
<path transform="translate(1413,982)" d="m0 0 4 2 7 3v9l-2-4-5-5z" fill="#1A1C20"/>
<path transform="translate(757,924)" d="m0 0 4 2 5 6-2 2-4-3-1-3-2-1z" fill="#1D1F22"/>
<path transform="translate(843,829)" d="m0 0h3v2l-6 4-7 1 3-3 3-1 1-2z" fill="#1F2124"/>
<path transform="translate(554,749)" d="m0 0 4 2 7 7-1 3-10-10z" fill="#1D2023"/>
<path transform="translate(453,652)" d="m0 0 4 2 9 8-2 2-7-6-4-4z" fill="#181B1F"/>
<path transform="translate(1217,597)" d="m0 0 4 2 6 6v2h2v3l-4-1-2-5-4-4-3-2z" fill="#26272B"/>
<path transform="translate(954,334)" d="m0 0h3l3 4v2l4 2 2 4h-2v-2h-2v-2l-4-2-4-4z" fill="#1C1E22"/>
<path transform="translate(758,231)" d="m0 0 3 1-5 6-3 2-4 1 6-7z" fill="#212326"/>
<path transform="translate(1147,1500)" d="m0 0 10 1-2 3-4 1-5-2z" fill="#1E1F21"/>
<path transform="translate(373,1252)" d="m0 0 4 1-5 5-7 9-1-2 6-8z" fill="#F9B03A"/>
<path transform="translate(1462,1064)" d="m0 0h16l-2 3h-3l-10-1z" fill="#9A95B9"/>
<path transform="translate(87,1054)" d="m0 0h5l3 3 5 3-3 1-6-3-1-1-2 2z" fill="#313233"/>
<path transform="translate(304,872)" d="m0 0v3l-7 7-5 4-2-1 7-7z" fill="#F98F1F"/>
<path transform="translate(1090,822)" d="m0 0h8l-5 5-1 7h-1z" fill="#222325"/>
<path transform="translate(1093,765)" d="m0 0 9 2-1 2-8 2-1-5z" fill="#FDA744"/>
<path transform="translate(959,550)" d="m0 0 5 4v2h-12l3-2 4-1z" fill="#26272A"/>
<path transform="translate(1341,492)" d="m0 0h3l-1 4-3 3-4 1v-3z" fill="#1F2124"/>
<path transform="translate(988,366)" d="m0 0 5 4 5 6-2 2-8-8z" fill="#1E2023"/>
<path transform="translate(886,266)" d="m0 0h3l7 8-1 3-9-9z" fill="#2D2F3E"/>
<path transform="translate(352,1064)" d="m0 0h13l-4 2-2-1v2l-7 1v-3z" fill="#9A95B9"/>
<path transform="translate(816,981)" d="m0 0 5 2 10 7-3 1-11-8z" fill="#1C1E22"/>
<path transform="translate(1221,695)" d="m0 0 3 1-1 4-4 1-4 3 1-4z" fill="#26272B"/>
<path transform="translate(1027,1480)" d="m0 0 4 2 3 5-3 3-1-1v-5l-3-1z" fill="#26272A"/>
<path transform="translate(925,1061)" d="m0 0 11 1-1 2h-14l1-2z" fill="#2D2D2E"/>
<path transform="translate(1570,1056)" d="m0 0h1v5l-5 1-2-4z" fill="#706F96"/>
<path transform="translate(1109,772)" d="m0 0 5 1 5 6-1 3-2-5-4-1-3-2z" fill="#27282B"/>
<path transform="translate(1403,740)" d="m0 0h2l-2 4-7 6h-2v-2l4-1 1-4h2l1-2z" fill="#212326"/>
<path transform="translate(1350,733)" d="m0 0 2 1-4 6-3 2-4-1z" fill="#1A1D21"/>
<path transform="translate(245,677)" d="m0 0 4 2 3 4v3 3l-1-2-4-2 1-4-3-2z" fill="#212327"/>
<path transform="translate(953,565)" d="m0 0h11l-3 2-6 2-5-2z" fill="#1E1F21"/>
<path transform="translate(967,556)" d="m0 0h9l-1 3h-9l-1-2z" fill="#5D5D7E"/>
<path transform="translate(1150,485)" d="m0 0 5 2h3l-1 3h-7l-1-4z" fill="#2F2F2F"/>
<path transform="translate(766,277)" d="m0 0h5l-2 3h-2l-2 4h-2l-1 2-1-3 2-3 3-1z" fill="#26272C"/>
<path transform="translate(1093,1557)" d="m0 0 8 5-1 2-4-1-2-2-2 2-1-5z" fill="#3B3B40"/>
<path transform="translate(944,901)" d="m0 0 2 1-2 4-5 5-1-4z" fill="#222326"/>
<path transform="translate(636,809)" d="m0 0 7 6 5 5-3 1-4-4v-2h-2l-3-4z" fill="#25262B"/>
<path transform="translate(1066,777)" d="m0 0 2 1 1 5-2-1-6 3 1-4z" fill="#242528"/>
<path transform="translate(687,701)" d="m0 0 5 2 4 3 1 2-4 1-6-6z" fill="#222427"/>
<path transform="translate(1220,699)" d="m0 0h2l-2 4-6 6h-2l2-4z" fill="#202124"/>
<path transform="translate(1398,689)" d="m0 0 2 1-8 9h-2l1-4z" fill="#1A1C20"/>
<path transform="translate(380,638)" d="m0 0h3l1 4h3l1 4h2v2l-4-2-6-6z" fill="#1F2124"/>
<path transform="translate(1185,542)" d="m0 0h3v3l4 2v2l4 2-3 1-8-8z" fill="#1F2124"/>
<path transform="translate(1419,478)" d="m0 0 2 1-8 6-3 2v-3z" fill="#F3A825"/>
<path transform="translate(672,322)" d="m0 0h3v2l-5 5-6 2 6-7h2z" fill="#202126"/>
<path transform="translate(1507,1064)" d="m0 0h17l-2 3-4-1h-9z" fill="#9893B7"/>
<path transform="translate(1414,1052)" d="m0 0h1l1 8h-17v-1l15-1z" fill="#F5C241"/>
<path transform="translate(1344,865)" d="m0 0 6 4 6 7-4-1-8-8z" fill="#1E1F21"/>
<path transform="translate(1441,708)" d="m0 0v3l-3 5-4 3-2-1 7-8z" fill="#F2B030"/>
<path transform="translate(1232,622)" d="m0 0 5 1-1 4h-2l-1 3h-1z" fill="#FBA83F"/>
<path transform="translate(1189,489)" d="m0 0 4 1 5 6-5-1-4-4z" fill="#1C1E22"/>
<path transform="translate(1093,453)" d="m0 0h2l3 4-1 3h-3l-1 2z" fill="#F2C045"/>
<path transform="translate(978,358)" d="m0 0h3l7 8-1 3-3-3v-2h-2v-2h-2v-2h-2z" fill="#1A1D21"/>
<path transform="translate(595,1559)" d="m0 0 4 1 4 5-6-1-2 2-1-4z" fill="#39393D"/>
<path transform="translate(1243,675)" d="m0 0 2 3-6 6h-2l-1-3 5-1 1-4z" fill="#242629"/>
<path transform="translate(1253,552)" d="m0 0 4 2v2h-17v-1h13z" fill="#191B1F"/>
<path transform="translate(858,455)" d="m0 0 5 1 5 7h-3l-7-7z" fill="#25262A"/>
</svg>
