<svg xmlns="http://www.w3.org/2000/svg" width="83.9" height="86.6" fill="#f2f2f2"><circle cx="74.9" cy="9" r="9"/><path d="M52.5 8.36a5 5 0 0 0-5 4.5l-.5 5.8c-.5 4.5-3.7 7.7-7.3 8.1l-5.3.6a5 5 0 0 0-4.4 5 5 5 0 0 0 4.4 5.1l5.3.6c3.6.5 6.8 3.7 7.3 8.1l.6 5.8a5 5 0 0 0 5 4.6 5 5 0 0 0 4.8-4.6l.6-5.8c.5-4.4 3.7-7.6 7.3-8l5.3-.7a5 5 0 0 0 4.4-5 5 5 0 0 0-4.4-5l-5.3-.7c-3.6-.4-6.8-3.6-7.3-8l-.5-5.8a5 5 0 0 0-5-4.6z"/><path d="m35.5 33.8 5.3.6c5.6.7 10 5.5 10.6 11.5l.6 5.8c0 .6.6 1.2 1.2 1.2s1.1-.5 1.2-1.2l.6-5.8c.6-6 5-10.8 10.6-11.5l5.3-.6c.6 0 1-.6 1-1.3s-.4-1.2-1-1.3l-5.3-.6c-5.6-.7-10-5.5-10.6-11.5l-.6-5.8c0-.7-.6-1.2-1.2-1.2s-1.1.5-1.2 1.2l-.6 5.8c-.6 6-5 10.8-10.6 11.5l-5.3.6c-.6 0-1 .6-1 1.3s.4 1.2 1 1.3z" fill="#005"/><path d="M53.5 44.6c1-6.1 5.5-11 11.2-12.1-5.7-1.1-10.2-6-11.2-12.1-1 6.1-5.5 11-11.2 12.1 5.7 1.1 10.2 6 11.2 12.1z" fill="#fff6b8"/><circle cx="74.9" cy="9" fill="#fff6b8" stroke="#005" stroke-width="1.5" r="5"/></svg>